<?xml version="1.0" standalone="no"?> <!DOCTYPE svg PUBLIC "-//W3C//DTD SVG 1.0//EN" "http://www.w3.org/TR/2001/REC-SVG-20010904/DTD/svg10.dtd" > <svg xmlns="http://www.w3.org/2000/svg" width="100%" height="100%">
<defs >
<font id="fp-8730" horiz-adv-x="1205" ><font-face
    font-family="vtks ink"
    units-per-em="2048"
    panose-1="2 0 0 0 0 0 0 0 0 0"
    ascent="2000"
    descent="-485"
    alphabetic="0" />
<missing-glyph horiz-adv-x="1124" />
<glyph unicode=" " glyph-name="space" horiz-adv-x="569" />
<glyph unicode="!" glyph-name="exclam" horiz-adv-x="631" d="M185 1891H413L421 1883V1203Q384 411 373 411H229Q213 411 209 631Q177 1064 177 1199V1883L185 1891ZM169 187H429L437 179V-89L429 -97H169L161 -89V83L169 91H293Q345 91 345 103V107Q316 143
277 143H221Q205 143 189 163L177 159L161 179L169 187Z" />
<glyph unicode="&quot;" glyph-name="quotedbl" horiz-adv-x="727" />
<glyph unicode="#" glyph-name="numbersign" horiz-adv-x="1139" />
<glyph unicode="$" glyph-name="dollar" horiz-adv-x="1139" d="M356 1928H476L484 1920V1724Q484 1716 556 1696V1688L544 1664L548 1660H556L560 1664Q568 1664 568 1684L572 1688H576Q772 1593 772 1320V1220L764 1212H748L728 1232H724Q724 1212 716 1212H536L528
1220V1300Q528 1508 392 1508Q300 1508 272 1400L264 1328Q264 1207 396 1128Q626 949 708 860Q774 763 780 708L776 692Q792 692 792 596Q792 328 572 232Q485 209 484 200V8L476 0H328L320 8V200Q319 206 224 228Q0 329 0 576V724L8 732H236L244 724V600Q244
473 336 428L384 420H408Q512 420 544 536L556 612Q535 708 512 720Q479 765 240 948Q24 1097 24 1328Q24 1592 204 1684Q267 1712 316 1720L320 1724V1888Q320 1896 336 1896L356 1928ZM368 1636V1628L376 1620H388Q400 1624 400 1644L392 1652H384L368 1636ZM460
1592V1588L468 1580Q484 1600 500 1600L508 1612V1616L500 1624Q485 1624 460 1592ZM712 1488V1484H720V1488H712ZM716 1376V1372L724 1276V1260L720 1240H724Q731 1240 736 1268L732 1280L740 1288V1292L732 1300L736 1320V1344Q724 1359 724 1376H716ZM716 700L712
676H720L724 700H716ZM740 700V664H748L752 700H740Z" />
<glyph unicode="%" glyph-name="percent" horiz-adv-x="1821" />
<glyph unicode="&amp;" glyph-name="ampersand" horiz-adv-x="1366" />
<glyph unicode="&apos;" glyph-name="quotesingle" horiz-adv-x="391" />
<glyph unicode="(" glyph-name="parenleft" horiz-adv-x="682" />
<glyph unicode=")" glyph-name="parenright" horiz-adv-x="682" />
<glyph unicode="*" glyph-name="asterisk" horiz-adv-x="797" />
<glyph unicode="+" glyph-name="plus" horiz-adv-x="1196" />
<glyph unicode="," glyph-name="comma" horiz-adv-x="569" />
<glyph unicode="-" glyph-name="hyphen" horiz-adv-x="682" />
<glyph unicode="." glyph-name="period" horiz-adv-x="469" d="M119 296H391L399 288V8L391 0H119L111 8V288L119 296Z" />
<glyph unicode="/" glyph-name="slash" horiz-adv-x="841" d="M634 1988H818L826 1980L530 800L514 792L510 796V800L514 812L510 808H506Q497 808 490 836Q478 836 478 848L482 868L474 876V892H482Q490 892 490 880L486 868H494L506 880V884Q494 884 494 892V904L502
916V920H498L486 916L482 920V924Q482 932 498 932Q496 953 474 984V1060L482 1092V1096Q470 1108 470 1184V1212Q490 1239 490 1252Q490 1279 470 1292L454 1280V1284Q624 1988 634 1988ZM442 1212H446Q460 1212 462 1132L458 1128H454Q454 1134 422 1152V1156Q432
1212 442 1212ZM414 1108H422Q422 1097 462 1072L466 1052V1036Q466 1015 454 1012L442 1020H438L426 1008V1000L438 988H446L458 996L462 992V932L458 916L462 912V900H458L462 872V844L458 828L462 824V820L454 776L458 772V768L450 664L462 652L458 636L462
572V552L454 540V536L462 524Q335 0 326 0H146Q138 0 138 12Q266 549 286 588L282 592V596L386 1004H390L406 1000L414 1012V1016L394 1036V1040Q405 1108 414 1108ZM494 1080Q498 1052 506 1052H510L526 1068L510 1084H502L498 1080H494ZM534 1056V1048L546 1036H550L566
1052L550 1068H546L534 1056ZM474 820H482V816H474V820ZM506 760H518Q501 652 490 652L474 680L482 692L474 724H478L490 720V740L506 760Z" />
<glyph unicode="0" glyph-name="zero" horiz-adv-x="1029" />
<glyph unicode="1" glyph-name="one" horiz-adv-x="1029" />
<glyph unicode="2" glyph-name="two" horiz-adv-x="1029" />
<glyph unicode="3" glyph-name="three" horiz-adv-x="1029" />
<glyph unicode="4" glyph-name="four" horiz-adv-x="1029" />
<glyph unicode="5" glyph-name="five" horiz-adv-x="1029" />
<glyph unicode="6" glyph-name="six" horiz-adv-x="1029" />
<glyph unicode="7" glyph-name="seven" horiz-adv-x="1029" />
<glyph unicode="8" glyph-name="eight" horiz-adv-x="1029" />
<glyph unicode="9" glyph-name="nine" horiz-adv-x="1029" />
<glyph unicode=":" glyph-name="colon" horiz-adv-x="459" />
<glyph unicode=";" glyph-name="semicolon" horiz-adv-x="459" />
<glyph unicode="&lt;" glyph-name="less" horiz-adv-x="1086" />
<glyph unicode="=" glyph-name="equal" horiz-adv-x="1086" />
<glyph unicode="&gt;" glyph-name="greater" horiz-adv-x="1086" />
<glyph unicode="?" glyph-name="question" horiz-adv-x="889" d="M453 1919H477Q509 1919 509 1903L485 1863H473L441 1887V1895Q444 1919 453 1919ZM345 1903Q411 1868 413 1859V1831Q401 1816 401 1803Q420 1803 441 1771L425 1751Q425 1724 465 1715V1703Q465
1695 393 1687Q393 1719 313 1723Q305 1741 297 1743Q288 1743 277 1683L269 1675L273 1659L249 1651Q249 1658 217 1671V1687L221 1711Q212 1723 201 1779Q185 1787 185 1799L189 1819H181V1823Q197 1847 213 1847Q220 1841 225 1795H233Q250 1801 257 1815V1823Q257
1838 237 1859V1863Q237 1872 257 1875Q263 1859 269 1859Q290 1903 337 1903H345ZM617 1891Q710 1861 765 1783V1779L757 1771Q759 1746 773 1731L761 1715V1711Q769 1683 817 1683Q849 1595 849 1495L845 1491H841L761 1555Q709 1572 709 1607L689 1627V1631L701
1647L693 1655L653 1647Q633 1647 513 1747L517 1767V1771L489 1799V1803H497L541 1811H581Q621 1828 621 1859L617 1891ZM349 1871L345 1867V1855Q366 1827 385 1827L393 1851V1855Q393 1867 349 1871ZM469 1819H481V1815L473 1807L469 1811V1819ZM277 1775V1771L289
1759L297 1767V1775L289 1783H285L277 1775ZM697 1695V1675L709 1663L749 1715V1727L741 1735L697 1695ZM101 1679Q197 1660 197 1619V1615L189 1587Q205 1587 261 1535Q301 1518 313 1503V1311L305 1303H289Q281 1303 281 1315L277 1319H273Q265 1319 265 1307L261
1303H77L69 1311V1515Q75 1679 101 1679ZM793 1647L785 1627H797L801 1643L797 1647H793ZM125 1635V1631Q141 1607 165 1607Q177 1611 177 1631V1635L169 1643H133L125 1635ZM269 1623L301 1603L325 1611L329 1607Q316 1547 309 1547Q257 1568 257 1615L269 1623ZM633
1599H637L669 1579L685 1583Q700 1580 725 1547Q738 1547 749 1515Q810 1478 849 1439V1435Q837 1247 825 1247H821Q764 1266 757 1287L737 1283Q666 1346 633 1359Q633 1369 601 1375L605 1423V1519Q605 1530 665 1535L673 1555Q671 1567 633 1587V1599ZM609 1335Q789
1232 821 1203Q780 1024 633 887Q529 764 529 483V407L521 399H373L357 403L341 399H313Q301 399 297 467V559Q297 697 337 851Q375 973 525 1131Q575 1209 601 1335H609ZM693 1179V1167L709 1151H713L725 1163V1171L709 1187H701L693 1179ZM285 203H545L553 195V-73L545
-81H285L277 -73V195L285 203Z" />
<glyph unicode="@" glyph-name="at" horiz-adv-x="1749" d="M913 2000L933 1976Q947 1976 969 1996H977Q1137 1996 1277 1920Q1277 1912 1301 1912L1309 1896L1305 1880L1309 1876V1872L1297 1844V1836Q1310 1823 1321 1788L1317 1756L1321 1736L1297 1696Q1321
1680 1321 1648H1317Q1154 1820 929 1820Q591 1820 441 1472Q405 1368 405 1272L393 1264Q384 1264 377 1292Q365 1292 365 1304L369 1324L361 1332V1348H369Q377 1348 377 1336L373 1324H381L393 1336V1340Q381 1340 381 1348V1360L389 1372V1376H385L373 1372L369
1376V1380Q369 1388 385 1388Q383 1409 361 1440V1484L357 1664L353 1668H345L353 1520L349 1384L345 1372L349 1368V1356H345L349 1328V1300L345 1284L349 1280V1276L341 1232L345 1228V1224L337 1120L349 1108L345 1092L349 1028V1008L341 996V992L349 980V936L345
908L349 872V812Q337 797 337 776V764L341 752L337 732V648L341 644V640L381 644H401Q410 633 433 512Q505 309 673 224Q782 168 969 168H1237L1245 160V8L1237 0H929Q410 0 249 464Q213 594 213 728V1264Q213 1739 613 1940Q781 2000 913 2000ZM1441 1792Q1491
1792 1601 1552Q1645 1403 1645 1268V1260H1641L1645 1240V744H1637Q1628 752 1609 752Q1597 776 1561 776Q1561 792 1525 792L1517 804V824L1485 840H1481Q1473 840 1473 828H1465L1457 836V840Q1457 848 1469 848V860Q1469 876 1493 900L1489 904V908L1493 912H1497L1509
908V912Q1506 940 1501 940L1489 936Q1474 980 1453 980V1028Q1453 1062 1461 1080L1453 1104Q1471 1112 1473 1120V1124Q1473 1132 1453 1132L1457 1148L1453 1184V1200L1461 1208L1477 1204L1485 1228L1469 1216H1465L1461 1220H1457L1465 1260Q1457 1260 1457
1272L1465 1308V1320L1453 1348L1457 1352H1461Q1469 1352 1469 1340L1473 1336H1485V1344Q1485 1351 1461 1360L1457 1380L1445 1376L1441 1380L1445 1384V1388L1437 1412L1441 1416V1420Q1421 1450 1421 1464V1472Q1425 1484 1445 1484L1449 1480V1476L1437 1464L1453
1432H1457Q1463 1432 1469 1448L1457 1460Q1457 1496 1541 1496L1557 1484H1561L1569 1492Q1569 1499 1537 1512Q1529 1528 1517 1528L1489 1524Q1489 1530 1457 1540L1445 1536L1437 1564L1441 1576L1437 1588Q1465 1597 1465 1624Q1465 1632 1449 1632L1445 1636V1640Q1445
1648 1457 1648L1461 1652V1656L1445 1672V1676L1457 1728L1453 1732V1736L1461 1764L1457 1768H1453Q1446 1768 1441 1744H1429V1740L1437 1728L1425 1720H1421L1405 1784L1409 1788H1413L1425 1780Q1425 1790 1441 1792ZM1469 1724V1716H1473V1724H1469ZM909
1592H937Q1150 1592 1221 1392Q1245 1308 1245 1220V572L1253 564H1285Q1399 564 1445 700Q1453 760 1461 760Q1485 747 1485 728V696L1493 688L1509 700H1513L1525 692L1529 696H1533L1541 680Q1560 696 1601 700Q1633 691 1633 672Q1553 392 1273 392H1093L1017
396L949 392Q681 392 621 572L605 640L609 644H789V652H781V660Q788 676 809 676L817 668L813 664V660L821 636L817 600V596Q817 564 857 564H949Q997 564 1037 644H1125Q1177 644 1177 656V660Q1148 696 1109 696H1045L1025 716V960L1017 968Q838 894 821 880V852L817
692Q783 688 749 652H641Q601 657 601 668V948Q601 976 817 996L981 1036L1001 1032Q1025 1036 1025 1044V1240Q1018 1388 965 1388Q965 1395 945 1396H909Q821 1396 821 1228V1164L813 1156Q779 1172 701 1180Q649 1176 605 1156L601 1160V1212Q601 1592 909 1592ZM1533
1396V1388H1541V1396H1533ZM1485 1384L1481 1380V1372H1485L1493 1380L1489 1384H1485ZM1549 1380L1533 1360V1352L1537 1332L1521 1316V1312Q1521 1304 1541 1304V1296H1565L1573 1288L1569 1284V1280L1581 1272L1585 1276H1589L1585 1280V1284L1601 1340L1597
1344H1593L1577 1340L1573 1344V1348L1585 1352V1356Q1585 1366 1549 1380ZM1497 1364V1352H1505V1364H1497ZM1497 1332L1493 1328V1324L1501 1316H1505L1513 1324V1328L1497 1332ZM1573 1324H1581V1320H1573V1324ZM1469 1288V1280H1473L1485 1292L1481 1296H1477L1469
1288ZM361 1276H369V1272H361V1276ZM1481 1248L1477 1244V1240L1481 1236H1485L1489 1240V1244L1485 1248H1481ZM393 1216H397L405 1208V804L401 748L405 736L397 724L401 704V688L393 676L401 664L389 652H377L369 660V680L377 688L369 720L373 732L369 744L381
752Q378 787 369 796L373 800L369 820V872L373 888L369 900L373 1068Q377 1084 389 1084V1092Q377 1092 361 1136L369 1148L361 1180H365L377 1176V1196L393 1216ZM1001 1004L1005 1000H1017L1025 1008V1016H1013L1001 1004ZM1461 912H1465L1477 900V892L1469 884L1461
892V912ZM1509 852V848H1517V852H1509ZM1477 812L1481 808V804L1477 800H1473L1469 804V808L1473 812H1477ZM1505 808L1509 784L1505 772L1509 768L1505 764H1489L1477 776Q1494 789 1497 808H1505ZM1457 668V660L1465 652H1469L1477 660L1465 668H1457ZM1017 584L1025
576Q1036 576 1041 604H1033L1017 584Z" />
<glyph unicode="A" glyph-name="A" horiz-adv-x="972" d="M665 1851Q678 1851 717 1543Q765 1270 765 1215Q761 1203 741 1203Q711 1236 697 1283H685V1275Q695 1264 709 1203Q725 1203 725 1195Q725 1187 713 1187L709 1183V1179L717 1171L733 1179Q735 1159
745 1159V1147H741L729 1155L721 1147L737 1131H741L753 1139Q773 1123 773 1103Q765 1103 757 1079L761 1075L757 1059Q757 1029 777 1019L785 1027L781 1051L785 1055H789Q797 1044 801 1003L781 999V995Q781 987 805 979L817 895L813 891H809L777 907V915H769V907L773
891Q773 857 713 835L709 831V827L713 823H721L745 835V831L709 791L605 779Q597 779 585 931Q609 941 609 955L605 975L609 979L605 983H601Q593 959 585 959Q573 959 549 1219Q533 1302 513 1583H505Q505 1466 413 759L409 755L413 743L405 667L409 663H577L593
659Q613 663 613 675L605 743L613 751L605 763L613 771H637L685 783L689 779V775L685 771V767L689 763Q721 785 793 795Q837 788 837 763L865 571L861 567H853Q830 580 821 595V631L813 659H805V643L809 615L797 611L721 663V659Q733 641 793 599Q873 543 873 527L957
-17L953 -21H817L809 -29V-485H797V-29L789 -21H713Q702 -21 673 267L645 459H617L609 451V-245L605 -385H597V451L589 459H377Q366 459 337 171L309 -21H137Q116 -5 101 -5Q93 -5 93 -17L89 -21H69L65 -17H61L349 1847L353 1851H665ZM769 1191L781 1139L777 1135H773L765
1147L769 1175L761 1183L769 1191ZM737 1103L733 1099V1095L737 1091H741L745 1095V1099L741 1103H737ZM697 1023L693 1019V1015Q716 991 737 991Q746 991 749 1019L745 1023H741L729 1015L697 1023ZM633 999L629 995V991L633 987H637L641 991V995L637 999H633ZM729
927L741 923Q758 935 797 943V959L781 979H765Q729 939 729 927ZM621 943L633 935L653 955Q647 971 641 971H637Q621 965 621 943ZM665 951Q673 911 689 911Q707 919 709 927V935Q681 935 681 955L677 959H673L665 951ZM593 911V903L601 895H613L621 903V907L609
919H601L593 911ZM645 907V895H657V907H645ZM717 879L725 871H733V887H725L717 879ZM813 871Q825 867 825 847L805 827V819L809 807H805L789 803L781 843Q805 851 805 867L809 871H813ZM757 819L765 811V807Q765 800 745 795L741 799V803L757 819ZM769 783V771L789
759H797Q793 783 785 783H769ZM745 755V743H749L757 751L753 755H745ZM665 743L669 739H673L677 743V751H673L665 743ZM789 739L797 731H801L809 739L801 747H797L789 739ZM617 735L621 731H625L633 739L629 743H625L617 735ZM633 711L637 707H641L653 711Q657
694 705 667H713V671L657 723L661 727V731L657 735H653Q633 729 633 711ZM773 719V711H785V719H773ZM797 711V707L801 679H809L821 691L809 711H797ZM849 535L841 523V519H845L857 531L853 535H849ZM825 507V503L833 495L837 499V507H825ZM813 479L797 455V447H801Q811
449 821 475L817 479H813ZM745 395V387H753Q774 401 793 435V439H785L745 395ZM805 335V331L813 323L817 327V335H805ZM845 315V307H853L861 315L857 319L845 315Z" />
<glyph unicode="B" glyph-name="B" horiz-adv-x="956" d="M103 1872H467Q867 1872 867 1468V1248Q867 1082 735 980Q891 882 891 704V372Q891 105 651 20Q577 0 495 0H487Q463 12 463 24L467 36H455Q448 36 443 0H103L95 8V124L107 140L95 156V276Q123 276 163
208Q167 196 187 196V212H195L227 180V176Q195 176 195 140Q211 140 211 120L227 108L231 112V116Q231 134 215 152V168H227Q254 168 315 112Q370 72 387 48L411 40H415L423 48Q404 76 379 76L263 172V192L243 188Q182 235 175 248Q152 248 119 324L143 344V360L95
392L103 404L95 412V472Q95 480 127 484V492L115 512L119 516H123L151 512V520Q95 530 95 536V548L103 556L95 592Q115 597 115 604Q115 614 99 616L95 620V736L103 744L127 724H135Q135 739 151 768V772H139Q139 760 131 760L127 764L131 768V772L127 776V780L103
772L95 784V792Q114 792 123 800L135 796L143 804H147L159 796L183 800L187 796H191L195 800V804Q187 804 179 828H175L155 816L151 820H147L115 804L95 820V824Q99 836 119 836V848Q95 848 95 856V860L107 872H115L159 868L223 888Q379 893 379 904L391 900L467
908L487 904Q519 915 519 924L511 932H475L459 920L455 924H451L435 916L431 920H427L219 896L195 900Q195 889 99 884L95 888V900Q95 913 107 928V944L95 960V972Q95 978 111 984L127 980L135 988L131 992Q119 1000 115 1020Q103 1020 103 1036L95 1044V1316Q95
1324 127 1340Q127 1353 151 1376Q151 1393 239 1460Q239 1469 327 1548H335V1132Q335 1117 319 1096V1076L347 1068H467Q577 1068 607 1172Q619 1196 619 1248V1464Q619 1603 515 1640L479 1644H443L435 1652L443 1664L435 1672L395 1644H391Q378 1684 371 1684H359L351
1676Q377 1666 379 1656V1652Q379 1644 339 1644L335 1640V1612Q335 1563 287 1532Q249 1485 131 1384Q131 1372 103 1352L95 1360V1416Q115 1436 115 1468Q95 1473 95 1480V1864L103 1872ZM451 1704L459 1696V1704H451ZM447 1688V1680H451V1688H447ZM107 1644V1624L115
1616L123 1628V1644L115 1652L107 1644ZM267 1444L275 1436L283 1444L275 1452L267 1444ZM203 1088V1080L211 1072H219V1080L211 1088H203ZM207 1064L203 1060V1040L211 1032L215 1036V1056L207 1064ZM207 1020L183 988V976L199 948H207L231 972V976Q231 984 199
988V992L215 1016L211 1020H207ZM147 988H155V996L147 988ZM527 972V968Q543 952 547 928L579 916L587 924L599 920Q615 926 615 932Q615 940 603 940L563 936L559 940V944L571 980L555 996H551L527 972ZM643 948V940L651 948H643ZM623 936L627 932H631V944L623
936ZM339 864L335 860V228L343 220H475Q592 220 627 304Q647 353 647 432V648Q647 860 503 860H367L339 864ZM111 760H123V752H111V760ZM215 716L211 712V708Q229 692 239 692L247 712L243 716H239L235 712H231L215 716ZM211 548L207 544V536H211L219 544L215 548H211ZM163
528V520Q195 523 195 532L187 540H175L163 528ZM159 456L147 460L143 456H139L123 460L111 424Q118 423 135 388H139L143 392H147Q147 409 131 432V440Q131 448 143 448L175 444L183 456V468H175L159 456ZM267 444L263 440V436Q263 426 291 420L295 424V440L267
444ZM195 412L191 408V404H203L195 412ZM147 380Q156 356 163 356L175 360L183 352H195V356L191 376L199 384V388L191 396L147 380ZM307 368L315 360L319 364V376H315L307 368ZM291 356L275 336L283 328L299 352L295 356H291ZM203 348V340L211 348H203ZM211 292V284L219
276H247L255 284L239 304V312L267 316V324L247 328Q222 328 211 292ZM95 320H103Q115 316 115 296H107L95 308V320ZM243 120L235 100L251 84H259L247 100L255 112V120H243ZM479 36H483L499 48V60L491 68Q482 68 479 36Z" />
<glyph unicode="C" glyph-name="C" horiz-adv-x="1036" d="M522 1920Q785 1920 878 1700Q906 1610 906 1516V1312L898 1304H858L850 1296V1112Q850 1048 838 1048L834 1052V1296L826 1304H758L750 1296V1192H738L734 1280V1296L726 1304H666L658 1312V1520Q658
1652 570 1688L522 1696H518Q374 1696 374 1520V400Q374 277 454 236Q467 228 534 220Q534 200 550 200Q570 200 570 228Q650 283 650 324Q658 324 658 344V608L666 616H726L778 612L834 616H898L906 608V400Q906 316 890 316L846 308L826 336H822L810 324Q810
303 830 292H886L894 284Q882 189 786 84Q669 4 574 4H546Q546 30 518 44Q512 92 498 92Q449 92 426 48L422 44H418L394 64Q370 57 346 36H338Q259 58 194 148Q126 246 126 404V528Q142 547 142 560L126 576V1516Q126 1791 330 1884Q406 1920 522 1920ZM190 600L202
592Q223 592 226 604L206 620H202Q193 620 190 600ZM686 468V460Q686 438 714 420H718Q734 425 734 456V488L726 496H702Q686 490 686 468ZM306 436L302 432V424H314V428L306 436ZM746 364Q755 340 762 340L770 348V364L762 372H754L746 364ZM846 196V188H850V196H846ZM506
148Q509 124 518 124H534Q543 124 546 152L530 164H522L506 148ZM474 28H502L518 8L510 0H490Q469 0 466 12V20L474 28Z" />
<glyph unicode="D" glyph-name="D" horiz-adv-x="1149" d="M235 1872H623Q919 1872 999 1660L1011 1620L1007 1616H1003Q979 1616 959 1636H951L939 1624L987 1588L1015 1592Q1031 1562 1031 1468V1456L1023 1424L1031 1416V1412Q1031 1404 1015 1404Q1000 1369
991 1368L947 1392L927 1360Q936 1341 987 1300Q1011 1309 1011 1340Q1011 1352 1019 1352H1023L1031 1344V1220Q1031 1197 1015 1180V1172Q1015 1164 1027 1164L1031 1160V1156L1027 1152L1031 1132V1120Q1031 1089 995 1064Q995 1052 987 1052L967 1056L963 1052V1048L975
1032V1028L963 1016H947L915 1048Q905 1048 903 1032L907 1028V1024Q907 996 831 980L807 896Q815 833 839 800Q863 800 871 760L895 744H907Q922 744 943 760H947Q980 729 995 704V700L971 672V664Q999 633 999 620L995 580Q1007 580 1007 564L991 528H979Q979
539 959 556Q959 574 911 600V604Q911 617 923 632Q923 650 879 656Q862 684 787 724L783 728V1120Q791 1136 807 1136L847 1132L855 1144V1148Q855 1156 835 1156V1160L815 1156H795Q783 1160 783 1180V1464Q783 1590 695 1636L643 1644H483L475 1636V816Q475
786 443 772L439 768V756Q451 736 471 736L475 708V632Q475 623 447 616V604L459 588V584H451Q443 584 427 616V628Q427 636 459 636L463 648Q459 704 447 704H435Q419 704 407 644L411 620V612L387 580L395 572H403L419 580L435 572L451 576L475 552V228L483 220H615Q687
220 723 248Q747 232 775 228Q776 222 871 180V172Q839 94 839 68V64L847 56H855Q874 56 895 152L891 156V160L911 200L907 220Q921 239 935 284Q975 357 983 388L995 400Q1003 400 1023 300Q1015 260 1007 260Q994 292 987 292Q971 287 971 256V248L983 236L1003
240L1007 236V232Q999 214 991 212H947L931 196Q963 169 963 160Q946 111 903 76Q796 0 623 0H363L359 4Q352 32 327 32L319 16L323 4L319 0H235L227 8V564Q249 564 255 548L251 528L255 524H259Q335 542 335 552V556Q335 563 307 572L271 568L259 584Q227 591
227 600V1864L235 1872ZM887 1668L879 1656V1652L895 1636H899Q929 1636 931 1648Q931 1660 887 1668ZM891 1364V1360L903 1348H907Q919 1352 919 1372L915 1376H903L891 1364ZM947 1152Q947 1134 987 1132Q1015 1142 1015 1148Q1015 1160 991 1172L947 1152ZM887
1148L895 1140H919L931 1152Q927 1164 907 1164H903L887 1148ZM915 1096V1080L923 1072H927Q976 1088 979 1096V1100Q969 1120 947 1120H939L915 1096ZM871 920L875 916V908H863V912L871 920ZM951 840H959Q991 815 991 784L995 756L991 752H987Q947 789 947 816L951
840ZM1023 788H1031V728H1023V756L1015 768V772L1023 788ZM815 760V752H819V760H815ZM835 744V732H843V744H835ZM875 716Q875 708 899 704V712L887 724H883L875 716ZM1027 704L1031 700V656L1023 648L1019 652H1015Q1018 704 1027 704ZM371 628V616H375L383 624L379
628H371ZM363 536L367 532H375V544H371L363 536ZM411 532L407 528V524Q418 524 423 488L427 484H435L447 496Q447 532 411 532ZM975 500L979 496V492Q979 448 951 412Q905 260 875 212Q791 224 791 264L779 276H775L763 268H759L751 276L791 384L783 392V420Q783
480 803 480H807L871 464L887 480H895L935 468H947L955 476L947 488Q947 496 975 500ZM367 448L355 432V428Q355 415 415 400L423 424V428Q423 443 367 448ZM987 316V308H991V316H987ZM351 264V256Q358 240 379 240L399 268L387 280H379Q358 280 351 264ZM435 124Q435
113 455 104L467 108L515 100Q563 105 563 128L559 156Q611 161 611 176V196L599 208H539Q523 208 511 152Q435 148 435 124ZM639 188L635 184V176L663 148H675Q685 148 691 180L687 184V188L671 184L639 188ZM619 100L627 92H635V100L627 108L619 100Z" />
<glyph unicode="E" glyph-name="E" horiz-adv-x="841" d="M143 1872H171L179 1864Q179 1851 139 1792L135 1796V1864L143 1872ZM743 1872L751 1864V1652L743 1644H391L383 1636V1608L375 1584L383 1560V1088L391 1080H699L707 1072V860L699 852H635L627 844V636L615
624L611 628V844Q590 869 575 872Q575 892 567 892H563L555 884V880L583 856L579 852H391L383 844V228L391 220H743L751 212V8L743 0H631L615 12H591Q578 12 563 0H559L527 36H519Q493 36 463 0Q456 0 451 36H447L403 28Q384 44 371 44Q340 33 319 16H311L295 20Q272
15 255 0H147V8Q160 21 167 60V72Q135 104 135 128V232Q135 240 147 240L167 236L171 240V256Q171 268 143 268L135 280V320L139 360H147Q173 340 187 340L195 348Q195 356 179 356Q170 384 147 384Q135 384 135 392V632L139 676L135 680V684L139 708V740Q139 747
167 752V768L135 796V840L143 848L251 856L307 848L311 852V860Q295 877 291 896Q243 902 243 920Q243 961 199 980H171L143 976L135 988V1028Q135 1037 187 1056Q199 1071 199 1084Q199 1123 159 1148Q135 1181 135 1212Q135 1300 159 1300Q189 1300 207 1328V1332L195
1344L139 1340L135 1344V1580L139 1604L135 1624Q135 1691 199 1848Q207 1848 207 1868L211 1872H743ZM243 1720L219 1688L199 1696Q167 1693 167 1664V1648L179 1636H195Q219 1636 247 1684Q263 1684 263 1708Q263 1717 243 1720ZM275 1684Q283 1654 303 1644L311
1652V1668Q311 1690 295 1696H287L275 1684ZM263 1616L255 1604V1592Q255 1560 287 1560Q307 1566 307 1588Q282 1616 263 1616ZM183 1564V1516L207 1496H215Q243 1496 243 1524V1540Q243 1576 199 1576H195L183 1564ZM263 1480V1464L275 1452H287L295 1460V1464L275
1492L263 1480ZM291 1072L287 1068V1060Q290 1036 299 1036H343Q359 1044 359 1060Q346 1072 291 1072ZM283 972Q297 944 303 944H323L331 952Q316 955 303 984L299 988H295Q285 988 283 972ZM407 948V944L419 932H431L471 944Q486 930 511 928L515 940Q515 956
479 964V972L483 984L479 988H475Q459 988 407 948ZM147 964L199 952L211 936V932L207 928V924Q139 930 139 952V956L147 964ZM363 956V944H367L375 952L371 956H363ZM375 920V912H379V920H375ZM527 908V904L539 892L547 900V904L535 916L527 908ZM331 896L311
900L303 888Q335 860 335 840Q303 836 303 828V824Q306 798 331 768H335Q359 782 359 804L355 828L359 840Q347 843 347 872L363 900L355 908H347L331 896ZM375 872V860H379L387 868L383 872H375ZM203 756Q213 728 219 728H235Q243 728 251 752Q236 764 223 764H211L203
756ZM259 232L267 224L275 232L267 240L259 232Z" />
<glyph unicode="F" glyph-name="F" horiz-adv-x="921" d="M215 1872H815L823 1864V1652L815 1644H775Q767 1644 767 1656L763 1660H747L727 1644L695 1652L671 1644H463L455 1636V1356Q455 1346 419 1340V1336Q419 1301 455 1292V1048L463 1040H771L779 1032V820L771
812H463L455 804V412L439 396H419L423 368L411 360H407L355 412H351V420Q371 420 371 444L367 448H359L323 412Q351 396 351 380L343 356V348L359 332L363 336V340L355 348V356H359Q371 356 371 340L367 320Q394 320 403 280L415 276L439 284H443Q455 280 455 260V212Q435
191 407 176Q396 176 379 224L375 228V240L383 252L379 256V260L359 256H355L343 264H339V260Q395 173 395 160L359 132L363 128H367L443 188H447L455 180V140L443 124L455 112V8L447 0H215V12Q231 12 263 52L259 56H255L215 24L207 32V1864L215 1872ZM683 1676L687
1672H699V1684H691L683 1676ZM719 1672L727 1664H731L739 1672V1676L731 1684L719 1672ZM775 1680L771 1676V1672L775 1668H779L783 1672V1676L779 1680H775ZM259 1336V1328L271 1316H279V1328L271 1336H259ZM315 1276Q337 1212 367 1212Q387 1233 387 1244Q374
1320 359 1320Q350 1320 315 1276ZM235 628L231 624V620L243 608L251 616V624L235 628ZM267 496V472H275V496H267ZM271 452L267 448V424L287 420L295 428L271 452ZM399 420L407 412H415V420L407 428L399 420ZM319 392L315 388V384L323 376L327 380V384L319 392ZM275
368Q283 350 291 348L299 356L283 372L279 368H275ZM315 320Q299 305 299 252L303 248H307L347 296V304Q347 314 315 320ZM403 320L407 316V308H395V312L403 320ZM403 260V252H411V260H403ZM231 240L263 216H271Q278 216 287 240L283 244H279L255 240L247 248H239L231
240ZM315 216V208L323 200L331 208L323 216H315ZM427 156L423 152V148L431 140H435V148L427 156ZM271 64V60H275L347 112H351V124H347Q306 100 271 64Z" />
<glyph unicode="G" glyph-name="G" horiz-adv-x="1128" d="M551 1920H555Q823 1920 915 1696Q931 1651 943 1564L939 1560L943 1540V1480L939 1476V1472Q887 1472 887 1492V1496H883L875 1480V1476Q875 1466 903 1456L907 1460Q943 1456 943 1448V1312L935 1304H703L695
1312V1460Q695 1468 707 1468Q780 1468 811 1456Q847 1461 847 1472Q847 1484 803 1484L795 1476L775 1480L771 1476L747 1480L719 1476Q695 1485 695 1492V1520Q695 1696 551 1696H547Q449 1696 419 1596Q414 1573 399 1556L403 1532L395 1524H387Q355 1572 327
1572V1576L335 1588Q320 1592 295 1616H271Q242 1616 215 1572V1560L227 1544L219 1532V1528H223L247 1552H255L271 1524V1516Q271 1508 251 1508L247 1504V1500L255 1492H291Q308 1476 323 1476V1480L315 1492Q315 1505 379 1508L407 1476V860Q407 792 391 752Q407
752 407 696V400Q407 260 507 232L539 228H559Q649 228 683 320Q695 363 695 392V416L699 572L695 668L699 680L695 704V724Q695 761 719 788Q715 812 707 812H691Q667 806 667 768L663 764H559L551 772V972L559 980H935L943 972V252L923 208Q923 172 891 172L779
128H771L751 148H739Q705 128 687 128Q687 150 603 188H591L575 172V160Q575 134 643 96L663 100Q695 85 695 60V52Q634 0 527 0Q230 0 171 280Q159 332 159 400V760L167 768Q169 728 191 728Q212 728 235 760V768H227L191 744H183Q183 779 159 796V1476Q159 1484
187 1488L199 1476Q210 1488 231 1488V1496L219 1500L191 1496H167L159 1504V1532Q181 1550 191 1600V1604L179 1664Q213 1788 315 1860Q420 1920 551 1920ZM687 1664L691 1660H699L715 1676L703 1688Q696 1688 687 1664ZM351 1596Q354 1572 363 1572L371 1580V1584L359
1596H351ZM883 1532V1528L891 1504H895L903 1512V1524L895 1532H883ZM359 1492L363 1488H371L379 1496L375 1500H367L359 1492ZM235 884L251 868H259L267 876V888L255 900H251L235 884ZM251 796V784H259V796H251ZM243 780V772H247V780H243ZM719 520Q719 469 755
452H759Q779 472 779 500Q775 532 747 532L719 520ZM903 448V440L919 424H923L931 432V448L923 456H911L903 448ZM775 424L767 412L775 404L783 412V416L775 424ZM935 60L943 52V32L935 24H923L915 32Q925 58 935 60Z" />
<glyph unicode="H" glyph-name="H" horiz-adv-x="1149" d="M229 1883H461L469 1875V1107L477 1099H545L569 1083Q577 1083 577 1095L581 1099H629Q638 1099 641 1063L637 1059L585 1071L577 1063L621 1015H625L645 1031Q653 1031 653 1019Q653 1003 633 987L629
971L637 963L629 955L605 963H597L589 955L597 923Q553 900 553 879H541L545 899Q521 899 513 935Q503 935 493 975L521 991L537 987L549 999H557L573 987L577 999L573 1011L589 1027L585 1031L481 983L453 1023L449 1019V1015Q458 1015 469 979Q500 942 513 895Q481
891 481 883L489 875V871Q469 871 469 863V535L461 527L425 531L401 515L389 527L381 515V511Q401 463 413 463H433L457 483H465L469 395V267L449 243Q469 224 469 183V147L457 135Q397 151 397 171Q377 187 377 211L381 215V219Q353 277 337 283H333V175Q338 134
369 95V83L365 63Q398 27 437 27L461 35L465 31V19L457 11H341L333 3V-445L325 -453L321 -449V3L313 11H261Q253 11 253 31L221 47V103L229 111H237L249 75H261L265 79H269L273 75V71Q291 79 293 87L289 91V95Q300 135 309 135Q309 174 257 191H253L225 171L221
175V207Q221 218 241 247Q248 279 257 279H269Q282 265 301 207Q309 207 309 195L313 191H321V259L325 343Q325 359 281 363Q281 388 241 403L229 391L221 399V471L225 491L221 515V563L225 579L221 595V611L225 635L221 675V1875L229 1883ZM797 1883H1029L1037
1875V19L1029 11H857Q845 14 845 43V51H857V55L845 67H841Q833 67 825 39L829 15L825 11H801Q789 15 789 35V223H797Q810 91 825 91H829L833 95H837L833 107L837 111V115Q821 138 797 291L801 295V299L793 355L801 363Q789 377 789 411V427L797 435Q885 287 893
255L929 227L933 231Q933 241 857 355L853 367L869 379V403Q882 403 897 391H901V395Q892 419 861 419Q848 409 825 407L789 487L797 495L821 487Q823 498 861 519V523L849 543L853 547H857L885 543V551L849 563L821 547L805 539H797L789 547Q789 566 817 599H821L825
595H829L825 591V587L833 579H837L845 587V595L833 611L857 651Q857 688 821 719Q801 719 789 739V751Q789 756 857 771Q865 779 869 819Q841 819 841 835Q842 844 921 871L925 875L929 871V867L921 855Q929 837 937 835Q945 835 945 847Q932 891 925 891L913 879Q897
879 861 907L849 903V895H865V883H857Q844 883 829 895H825Q809 885 809 867H801V887L785 879L773 883L761 871H709L701 879L713 903L705 923L717 931L721 927H725L749 931L765 911Q772 911 777 939H789V947L745 943L737 951L681 939L677 943V951L725 991H733Q748
975 765 975L769 979V987Q753 1001 753 1023L749 1027H733Q733 1003 697 1003Q697 1015 665 1015L649 1083V1091L657 1099H781Q789 1099 789 1115L793 1119H797L813 1115L817 1119V1135Q817 1144 789 1151V1155L797 1187L789 1199V1875L797 1883ZM309 1267L305
1263V1259L321 1239L325 1243V1247L309 1267ZM329 1231L325 1227V1223L333 1215H337V1223L329 1231ZM345 1203Q345 1167 385 1131L389 1135V1139L349 1203H345ZM813 1195L825 1187L829 1191V1195L821 1203L813 1195ZM813 1163L825 1147H829L837 1155V1159L829 1167H821L817
1163H813ZM393 1119Q393 1096 441 1035H445V1043L397 1119H393ZM833 1115V1107H845V1115H833ZM749 1059L753 1055H757Q765 1055 765 1067Q785 1072 785 1079L781 1083H761Q753 1083 749 1059ZM677 1067L685 1059H689L705 1075L693 1079Q677 1073 677 1067ZM525
1051L533 1043L541 1051V1059H533L525 1051ZM777 1027L793 1007Q809 1035 821 1035L825 1039V1043Q825 1051 813 1051Q778 1036 777 1027ZM701 1039V1035L709 1027L717 1035L713 1039H701ZM673 1003L677 999V995L673 991H669L665 995V999L669 1003H673ZM797 987L793
983V975Q805 962 817 923H821Q843 923 849 939V951Q811 987 797 987ZM569 971L565 967V959H577V963L569 971ZM233 935V911Q240 895 261 895H273Q301 915 301 959L277 967Q256 967 233 935ZM453 951V947H461L469 955L465 959H461L453 951ZM889 947L897 939Q917 944
917 951L909 959Q889 954 889 947ZM433 943L429 939V935L433 931H437L441 935V939L437 943H433ZM961 935L953 919V911H957Q969 919 989 919V931L961 935ZM385 899L389 895H393L413 915V919H409L385 899ZM897 915V911L905 903L913 911L909 915H897ZM317 863L321
859V855Q361 872 373 891V895H365Q317 870 317 863ZM749 895V883H753L761 891L757 895H749ZM889 815L897 807L905 815L897 823L889 815ZM353 795V783L361 791L357 795H353ZM381 759V751H389V759H381ZM941 579L937 575V567H941L949 575L945 579H941ZM897 555V551H905L921
559V567Q897 565 897 555ZM857 499L861 495V491L857 467L861 463H865L869 467L877 483Q897 483 897 491V495Q893 507 873 507H865L857 499ZM997 479V471Q1001 459 1021 459L1029 467V471L1021 479L1017 475H1013L997 479ZM917 403V391H941V403H917ZM957 403V391H961L969
399L965 403H957ZM393 347Q398 295 425 295L441 307V331L445 371L441 375H425Q393 371 393 347ZM957 319V311H961V319H957ZM977 291V287Q983 271 997 263L1009 275L985 291H977ZM973 215L953 219H949Q933 213 933 191V187L937 183L965 151L973 159L953 207Q1001
210 1001 223V235H993L973 215ZM233 207V195H241V207H233ZM221 151H233V143H221V151ZM973 147V139H985V147H973ZM989 135L985 131V127H997L989 135ZM869 47L873 43H885L897 55V67H893L869 47ZM369 31L365 27V23L369 19H373L377 23V27L373 31H369Z" />
<glyph unicode="I" glyph-name="I" horiz-adv-x="527" d="M170 1872H402L410 1864V1444Q410 1436 386 1436L374 1420V1416L382 1408L402 1412L410 1400V1172L406 1156L410 1140V1088L406 1068L410 1044V1004Q410 997 382 992V988Q382 980 402 980Q410 962 410
928V920L406 896L410 856V592L406 588V584L386 588L362 576H358L350 584V592L358 600L378 596L386 608V612Q382 672 366 672H362Q330 651 330 612L334 588V576Q309 540 294 540V532L306 528L342 544L370 540L374 544V548L370 564H374Q382 564 382 536Q408 526 410
516V320L402 308L410 292V284H406L410 256V212L402 204L398 208H394V200Q410 198 410 188L402 180L410 148L406 144L386 148H382L322 132Q311 152 286 152Q286 166 242 172Q242 188 206 188Q198 196 198 220Q176 220 174 260L170 264V272Q171 292 178 292L174 296V300L178
304V308L182 304H190Q187 336 182 336L170 332L162 356V476Q162 506 174 508H178Q178 488 186 488L242 504L258 500L262 504Q259 532 234 532H198Q162 552 162 572V592L174 608V612L170 628L174 632V636L170 660L178 668L170 712Q194 712 194 720V724Q162 729 162
756Q170 756 174 780Q166 780 166 800H162L170 840L162 880Q194 892 222 892L238 880H242L250 888Q250 895 218 908Q210 924 198 924L170 920L162 936L166 960L162 1016V1076L170 1088V1092L162 1104V1172Q162 1180 178 1180L182 1184V1188Q162 1188 162 1224H166L186
1228L202 1224H206V1228Q206 1236 182 1236L170 1252V1256L174 1260V1264L162 1276V1392L174 1404H178L202 1400Q222 1405 222 1412V1416Q222 1429 162 1436V1864L170 1872ZM250 1428L242 1416Q242 1405 262 1396L318 1400H330Q339 1400 342 1420L338 1424H330L290
1420L250 1428ZM370 1112L362 1100L370 1092H374L378 1108L374 1112H370ZM342 1012V1000L350 1008L346 1012H342ZM230 868Q234 840 242 840Q250 840 258 868L254 872H238L234 868H230ZM218 828V824L226 816H230L238 824V828L230 836H226L218 828ZM214 792V784H222V792H214ZM230
776L214 756V748L218 728L202 712V708Q202 700 222 700V692H246L254 684L250 680V676L262 668L266 672H270L266 676V680L282 736L278 740H274L258 736L254 740V744L266 748V752Q266 762 230 776ZM178 760V748H186V760H178ZM254 720H262V716H254V720ZM290 584L294
580H306V592H298L290 584ZM294 508L290 504V500L294 496H298L302 500V504L298 508H294ZM330 508L326 504V496Q347 475 350 452L354 448H362Q374 452 374 472Q367 472 362 492Q349 492 330 508ZM294 412L282 396V392Q298 368 342 368L350 380V396Q350 408 294 412ZM182
268H190V276L182 268ZM190 248V244H198V248H190ZM174 192H182Q190 192 190 180L186 168L190 164L186 160H182L174 184V192ZM282 96Q304 89 318 72L330 80L350 68L406 76L410 72V8L402 0H190L174 12L166 4L162 8V40H170Q170 16 178 16Q182 40 198 56V64Q182 64 182
72V84L186 88V92L206 88L210 92H214L222 76Q241 92 282 96Z" />
<glyph unicode="J" glyph-name="J" horiz-adv-x="900" d="M569 1896H653L661 1888V1872L625 1796Q625 1765 609 1732Q609 1693 573 1652H569L561 1660V1888L569 1896ZM701 1896H801L809 1888V1792L805 1788V1784L777 1788H765Q745 1777 745 1764L749 1732Q713
1725 713 1700L721 1692H733L749 1708L769 1704H773L801 1740L809 1732V1580H801Q793 1581 761 1656L745 1664H729L721 1656L729 1608L721 1584V1544L713 1532Q713 1492 749 1492L809 1504V1500L801 1488V1476L805 1456L801 1452L797 1456H793L785 1448V1444L793
1436L805 1440L809 1436V1416H801Q783 1432 749 1432L737 1428L729 1444L725 1440H721Q709 1456 697 1456V1464Q713 1464 713 1472L689 1492H685Q674 1492 673 1472H669L661 1480L665 1492L661 1496Q641 1491 641 1484Q641 1460 685 1452V1436Q681 1424 661 1424H649Q640
1424 637 1456H625L617 1432Q653 1413 653 1388L645 1380H641Q623 1394 601 1456Q561 1470 561 1476L569 1528L565 1540L577 1548H581L601 1536Q615 1536 629 1576L633 1580H669L685 1568L693 1576V1580Q669 1612 621 1612Q605 1623 605 1632Q623 1700 645 1700L665
1696L673 1708L645 1744Q651 1788 665 1788L685 1780V1792Q665 1792 665 1800Q665 1834 701 1896ZM741 1416Q796 1396 797 1380V1376Q797 1368 785 1368Q733 1379 733 1408L741 1416ZM689 1308Q729 1306 729 1296V1232L737 1224L741 1228L737 1232V1244L741 1260L737
1276Q741 1300 757 1300Q809 1297 809 1284V404Q809 146 621 44Q530 0 417 0H409Q277 0 197 56V64Q209 64 209 72V76Q209 88 169 88L157 100L137 96L133 100V112L137 148L133 160Q140 160 153 200L149 224Q163 224 169 276L193 300L213 280H229Q245 280 245 316Q254
316 261 352H269Q278 352 281 324Q309 224 429 224L481 212L485 224L481 236Q565 274 565 444L561 492L565 496L561 516V684L565 700L561 728V1144L565 1148V1152L581 1148L621 1152L641 1148Q677 1148 677 1188L689 1208L709 1204H721L725 1120H729L733 1124H737Q730
1248 685 1248L673 1280Q680 1280 685 1308H689ZM753 1212L749 1208Q749 1168 781 1168L797 1188V1192Q779 1212 753 1212ZM717 1020V1016H725V1020H717ZM709 916Q721 916 729 808L725 780Q737 636 745 636L749 648L745 688L749 732L741 740L745 744V748L737 780V784L741
800L737 812L749 824L737 832L741 852V868Q729 916 717 916H709ZM701 676L709 668L717 676L709 684L701 676ZM741 632L737 628L741 616L737 532V484H745L749 500L753 496H761V508L749 556L753 568L749 592Q757 592 757 604Q752 632 741 632ZM177 616Q224 616 249
568V564Q233 549 233 532L229 528H221V552Q221 560 205 560Q205 583 181 592L161 596V604Q161 614 177 616ZM733 416L745 420L741 436L753 452L757 436H765L773 460L769 472L777 480V484Q739 484 733 416ZM201 484H205L209 480H213Q213 452 189 412Q174 348 153
348V344L157 312Q157 291 117 208Q73 216 73 228L77 240Q49 254 49 260Q77 263 77 284Q85 284 85 304L89 308H93Q103 300 133 296L145 340Q74 375 69 388V392Q78 412 101 424Q110 476 133 476L137 480Q160 464 181 460Q201 460 201 484ZM249 464L273 432V400L265
392L261 396H257L241 380H233L221 392V400Q241 419 241 460L245 464H249ZM89 456H93L101 448Q95 432 89 432L81 440V448L89 456ZM577 432V424Q581 412 601 412L605 416V420L593 432H577ZM761 432V424H765V432H761ZM653 376Q653 359 697 344L701 348V356L677 372Q677
388 669 388H661Q653 388 653 376ZM645 268V256L669 236L685 256Q675 276 653 276L645 268ZM721 232L717 208H725L729 232H721ZM745 232V196H753L757 232H745ZM661 204L669 196L677 204V212H669L661 204ZM173 192Q206 168 229 168L237 180V192L221 208Q173 203
173 192ZM257 184L249 172L265 156H281L293 168Q293 180 257 184ZM321 172V160Q321 145 381 140L401 124Q417 130 417 136V148Q411 164 389 164L385 160H381L349 184H333L321 172ZM101 172H109V168H101V172ZM553 148V140L569 124H577Q577 146 561 156L553 148ZM445
140L437 128V120L453 96L481 100Q529 88 557 68H589L597 76V84Q596 98 525 116Q523 124 505 132L481 128L445 140ZM225 68V60L233 48Q277 52 277 60V64Q271 80 249 80L225 68ZM333 28V20H337V28H333Z" />
<glyph unicode="K" glyph-name="K" horiz-adv-x="1036" d="M165 1872H397L405 1864V1280L401 1256L405 1236Q405 1228 393 1228L389 1224V1216Q389 1208 401 1208L405 1204V1092H413Q416 1200 641 1684Q723 1871 729 1872H961L969 1864L661 1172L989 4L985 0H749Q733
15 673 276L533 816L501 928H497Q481 913 417 756Q408 756 401 684L405 664V620L401 608L405 588V16Q405 10 377 0L357 4L273 0H165L157 8V1096L161 1112L157 1128V1864L165 1872ZM329 1368L325 1348V1340H333L337 1368H329ZM329 1308V1300H337V1308H329ZM241 1256L301
1212L309 1220L301 1232V1236Q317 1236 317 1244L293 1264H289Q277 1264 277 1240H273Q265 1240 265 1252L269 1264L265 1268Q241 1263 241 1256ZM321 1200V1196Q321 1152 333 1152H337V1180L333 1196L337 1212H333L321 1200ZM329 1136L333 1132V1004L341 996L345
1000L341 1020L345 1032L341 1036V1040L345 1064L341 1124V1128L333 1136H329ZM325 976L329 892H333L337 896H341L333 976H325ZM321 792V788H329V792H321ZM325 684V676L333 580V564L329 544H333Q340 544 345 572L341 584L349 592V596L341 604L345 624V640Q335 684
325 684ZM641 660L645 656H657V660L649 668L641 660ZM333 536V520Q334 492 341 492L337 480L341 416L349 408L353 412V432L349 456L353 476L349 480V484L353 500L345 512L349 516V520Q343 536 337 536H333ZM345 404L341 400L345 388L341 292V272L365 268V280L353
328L357 340L353 364L361 372Q361 394 345 404ZM373 256L381 248V256H373ZM361 248V208H369L377 232L365 248H361ZM345 232L337 188Q344 188 353 228L349 232H345Z" />
<glyph unicode="L" glyph-name="L" horiz-adv-x="809" d="M189 1872H421L429 1864V856L425 840L429 824V636Q429 596 409 584V576L417 540Q408 513 389 500H377L317 568Q289 604 269 648L265 652H249V632L237 616V612L249 572V568L213 524Q213 472 257 448L261
452V468L241 504Q245 528 253 528H257Q264 528 281 484Q281 460 261 428V420Q261 408 309 408Q325 391 325 376L313 364V360L321 352L337 364V408L349 420L361 408L337 336Q337 315 357 304L417 320H421L429 312V228L437 220H525L537 212H541L553 220H569L577 212Q559
185 489 160L313 64Q273 129 273 144Q285 147 285 176Q257 186 257 208V232L289 264L273 280L233 268Q205 268 197 316H181V344Q181 351 209 360L217 388Q217 398 181 428V564L189 596L181 604V652Q207 652 229 624Q237 624 237 636L233 648L249 676L253 680H257L277
664H285Q300 670 317 720L305 728H293Q267 728 221 672L185 668L181 672V1864L189 1872ZM201 708V700H209V708H201ZM373 656Q382 620 393 620L413 644V652L397 668Q373 664 373 656ZM317 260V256Q320 244 349 244Q361 244 361 260L349 276Q317 269 317 260ZM181
272H185Q213 244 213 228L229 196L225 180Q245 153 289 48Q234 0 213 0H189L181 8V272ZM665 220H669V212H665V220ZM645 208H653V188L645 180L637 188V200L645 208ZM585 172L589 168V164L577 152V148L585 140L633 160H641L649 152V124Q680 24 733 24L737 4L733 0H377L357
16H345Q345 0 337 0H293L285 8L337 44Q337 55 381 64Q381 78 421 84Q511 142 549 148Q563 172 585 172ZM701 152H713V144H701V152Z" />
<glyph unicode="M" glyph-name="M" horiz-adv-x="1471" d="M141 1871H505Q519 1871 565 1543L601 1335L597 1331L577 1335H565L549 1319L561 1303V1299L553 1287V1279L561 1255L557 1231L561 1227H565Q565 1254 597 1279Q597 1299 605 1299L629 1171Q581 1153
581 1143L593 1131H629Q639 1131 661 971Q636 971 633 931L617 919L629 879Q611 879 597 815Q552 759 517 739H509Q493 739 465 963L445 1071L457 1083Q437 1083 409 1311L361 1603H353Q369 1372 369 1155V1075H361Q361 1087 345 1095L337 1087V1079L349 1047L345
1035L369 1015V971L353 947L361 927Q353 927 353 915L369 859V663Q278 597 217 591Q193 596 193 603V611Q193 617 225 631L245 711V715Q239 759 189 759Q168 759 137 723H133V779L141 791V799L133 811V895L149 907L153 911V919Q153 927 137 927L133 931V1335Q133
1368 149 1411V1435L133 1499V1571Q151 1606 169 1607V1611L153 1651L165 1663V1675L161 1691L165 1707L149 1723L137 1719V1727L157 1751V1755L137 1775L149 1791V1803Q149 1811 137 1811L133 1815V1863L141 1871ZM1345 1871L1353 1863V1231L1333 1207Q1333 1199
1349 1199L1353 1195V7L1345 -1H1257L1249 -9V-461L1241 -469L1237 -465L1233 -205V-9L1225 -1H1173L1165 -9V-301H1153V-9Q1153 -2 1117 3V1043Q1133 1061 1133 1087Q1117 1093 1117 1099V1143Q1117 1367 1133 1603H1125L1037 1063Q1027 1063 1013 1019Q986 1019
957 987Q936 987 901 959Q863 923 841 923L821 919L817 923V927Q969 1855 977 1871H1345ZM1125 1255V1251L1173 1215L1181 1187L1173 1171L1177 1167V1163L1169 1147L1177 1115H1181L1193 1123L1213 1111L1233 1115L1253 1107Q1269 1122 1269 1139L1273 1143H1277L1289
1139L1333 1171V1183L1321 1195Q1256 1180 1241 1155Q1222 1155 1201 1135H1197Q1189 1135 1189 1147L1197 1171V1175L1189 1199L1197 1227Q1190 1254 1169 1263H1133L1125 1255ZM973 1243V1235H985V1243H973ZM309 1147V1131Q309 1125 337 1111L345 1119Q345 1143
321 1159L309 1147ZM177 1059V1055L185 1047H197L209 1059V1075L201 1083H189Q177 1079 177 1059ZM517 995L525 987L533 995V1003H525L517 995ZM1017 995L1025 987L865 -1H625Q614 -1 549 447Q525 557 525 599L573 711Q580 711 609 763L673 799L685 803Q695 803
725 563L737 351H749V355Q749 558 809 871Q871 915 885 915Q985 965 1009 987L1017 995ZM321 919Q309 904 269 887V879L281 867H285L301 895Q327 905 329 915L325 919H321ZM149 871Q157 858 157 819L189 811Q199 832 213 835L229 827Q257 835 257 859V867Q257 875
245 875L213 863Q205 863 193 911H185Q153 904 153 887L149 871ZM669 883Q681 881 681 851V843Q681 833 641 823L637 827Q637 867 661 867Q661 883 669 883ZM801 775V767L813 755Q835 755 841 771V775L829 787H825Q801 785 801 775ZM529 731H541L553 719V715Q521
682 521 667H509L505 715L529 731ZM141 655L161 631V627L153 619Q133 624 133 631V647L141 655ZM361 615L369 607V359L353 347L349 343V315Q349 290 241 83Q227 83 209 67H197Q189 67 189 79L205 111Q176 200 157 203Q133 203 133 211V423L141 431Q141 407 173
391H181L197 399L237 383Q261 383 261 415Q247 491 233 491H217Q210 491 189 443L173 427Q160 427 149 491V503L157 515V519L133 543V547L137 551V555Q157 555 185 527Q199 543 221 543Q221 549 265 559Q298 586 357 611L361 615ZM593 555L617 547Q629 562 629
575L621 583H609Q593 577 593 555ZM365 215H369V7L361 -1H245L237 7V19Q269 53 329 179Q338 182 365 215ZM141 75H149Q161 71 161 51Q155 51 145 19H141L133 27V67L141 75Z" />
<glyph unicode="N" glyph-name="N" horiz-adv-x="1122" d="M160 1872H424Q433 1872 484 1660L804 476H812Q784 716 784 944V1864L792 1872H1004L1012 1864V8L1004 0H740Q728 0 644 340L356 1400H348Q380 1192 380 980V8L372 0H160L152 8V1864L160 1872ZM848 704Q848
688 872 688Q878 672 884 672L888 676V692L860 716H856Q848 716 848 704Z" />
<glyph unicode="O" glyph-name="O" horiz-adv-x="986" d="M474 1920H478Q779 1920 862 1652Q878 1585 878 1520V800L870 792H866L854 800L834 788H826Q814 820 814 852L806 860L814 868Q822 868 830 844H838Q846 844 854 872L838 880Q790 876 790 868L798 860V852Q798
844 758 812V796H762Q770 796 770 808H778V796L758 776L762 752L754 744L758 732Q758 704 734 704Q734 692 726 692H722V696L726 724L702 764L710 772L726 768L734 784Q724 810 714 812Q698 812 682 792Q646 778 646 768L650 756L638 748L630 756V760L642 776L630
792V1012Q630 1048 658 1048H666Q678 1048 702 1032Q727 1032 738 1052Q738 1064 690 1076Q667 1093 634 1100L630 1208V1396Q630 1439 658 1464V1468Q630 1492 630 1544Q604 1696 482 1696H470Q374 1696 334 1596Q322 1553 322 1524V708Q322 676 298 676Q286 676
286 668Q302 668 302 648L314 644V632H294L282 620V592H294L310 604H314L322 596V468L314 456V452L322 440V396Q322 280 418 232L470 224H478Q583 224 622 332Q630 412 638 412Q649 368 658 368L666 376L634 444L638 448V452L630 484V560Q635 576 666 576L682 564Q682
573 714 584Q729 616 766 616L786 608L798 612L810 596L830 600Q830 592 842 592L874 600L878 588L874 572L878 532V400Q871 236 838 236L826 224V208L834 196Q811 145 786 128H774L762 136H758Q746 132 746 112L754 100V92Q726 64 710 64Q708 72 690 80Q666 71
666 64L674 40Q589 0 478 0H474Q200 0 106 224L98 244L102 260V264Q74 287 74 400V1520Q74 1821 342 1904Q408 1920 474 1920ZM822 1684V1664H830Q839 1664 842 1684L830 1692L822 1684ZM802 1648V1636L810 1628L814 1632V1656H810L802 1648ZM782 1616L778 1588L782
1584H786Q794 1584 794 1596L790 1616H782ZM674 1512V1500L682 1492Q710 1514 710 1532L702 1540H698Q691 1540 674 1512ZM750 928L774 900L798 924L794 944L810 972H794Q770 972 750 928ZM722 876L718 856L726 848L734 856V876H722ZM758 860V848H762L774 860L770
864L758 860ZM850 824V816L858 808L866 820V824L858 832L850 824ZM638 804V796H646L654 804L646 812L638 804ZM762 696H766Q774 696 774 672H782V680H790L798 656Q798 645 750 632H722V636Q722 655 762 696ZM170 660L186 644H194Q206 644 206 660Q202 676 190 676Q172
668 170 660ZM774 664V660H782V664H774ZM270 652L278 644L286 656L282 660H278L270 652ZM858 664Q878 659 878 652V628Q878 620 846 616Q830 622 830 628L858 664ZM794 636H802L810 628L790 620L786 624V628L794 636ZM638 624Q646 624 646 612L650 608H654L670
620L678 608V604Q678 596 634 584L630 588V616L638 624ZM806 588V576H810L818 584L814 588H806ZM762 564L774 556L794 576L790 580H778L762 564ZM730 552V544H734V552H730ZM678 544L674 512L678 508H682L690 516V544H678ZM678 496L666 432H674Q682 432 686 472L682
488L686 492L682 496H678ZM770 464V460H778V464H770ZM290 448V436H294L302 444V448H290ZM230 420V416L246 424L258 420Q258 428 274 428L278 432V440H274Q230 428 230 420ZM774 428V416H782V428H774ZM798 428L794 416L798 412H802L806 416V428H798ZM750 420V412H762V420H750ZM198
404V400Q218 405 218 412L214 416H210L198 404ZM738 404L734 400V392H746V396L738 404ZM666 400V396L674 388L678 392V400H666ZM106 296V292L114 284L142 320V332L134 340Q106 326 106 296Z" />
<glyph unicode="P" glyph-name="P" horiz-adv-x="1014" d="M151 1872H247Q254 1872 259 1844H267L275 1852L271 1868L275 1872H539Q935 1872 935 1456V1280L927 1268L935 1256V1144Q935 728 527 728H399L391 720V544L383 536L331 540L327 536H323L259 548L247
544L215 560Q215 573 195 600V704L191 784L243 804L259 800L275 804V812Q259 812 259 820L291 848H299V832H303L315 844L311 848V852L315 856H319Q319 848 331 848Q438 876 479 912L683 996Q739 1012 743 1028V1036H719Q672 1000 651 1000V1008Q687 1059 687 1124V1476Q687
1590 595 1636L547 1644H499Q459 1644 419 1656Q419 1644 395 1644L391 1632L387 1588L391 1512V1224L387 1184L391 1148V1000L383 988V984L399 956H531V952Q486 916 451 916Q451 904 379 880Q379 887 355 892L359 920V928Q355 940 335 940H331L315 928L291 932L287
928V924Q304 914 311 896L299 880Q273 896 259 896H255L235 892L231 896V900L235 912H231L215 908L187 920L151 900H143V1316L155 1332L143 1348V1480L147 1496L143 1512V1636L147 1648L143 1668V1800L147 1836L143 1864L151 1872ZM307 1788V1780L315 1772L323
1792L319 1796H315L307 1788ZM351 1736V1728H367V1736H351ZM195 1720L211 1700V1696L207 1680Q213 1664 219 1664L227 1672V1720L219 1728H203L195 1720ZM255 1708V1700H267V1708H255ZM183 1636L187 1632H191L203 1636L207 1612H215L239 1640L251 1632L259 1640L251
1648V1660Q251 1668 263 1668L267 1672V1680L259 1688H251Q244 1688 239 1664Q189 1648 183 1636ZM275 1668L271 1640Q271 1607 331 1600Q347 1606 347 1612Q347 1620 335 1620L331 1624V1632L335 1636V1640Q287 1654 287 1668H275ZM779 1600L775 1596V1584L787
1572L803 1592L779 1600ZM727 1480V1460Q727 1444 791 1440Q793 1431 823 1416Q859 1434 859 1444Q852 1472 823 1472Q823 1520 779 1520Q757 1504 731 1500L727 1480ZM899 1464V1444L907 1436H911Q923 1440 923 1460L911 1472H907L899 1464ZM175 1316L171 1312V1308L187
1296L191 1300V1304L175 1316ZM319 1256Q319 1249 351 1236L363 1248L339 1272L319 1256ZM279 1264V1256H291V1264H279ZM755 1108V1100L767 1084V1080L763 1052L799 1040Q799 1046 827 1060V1072Q809 1072 791 1060H775V1100L767 1108H755ZM851 1088L855 1084H859V1096L851
1088ZM331 992V972L339 964Q371 968 371 976Q371 983 351 988Q351 1000 343 1000H339L331 992ZM247 928V916L267 912V920L259 928H247ZM599 924V912H607V924H599ZM179 840H187V828L171 820L167 824L179 840ZM143 820H155V812H143V820ZM171 800L179 792L151 768L143
776V784L151 792L155 788H159L171 800ZM175 772L183 764V760L175 748L179 728Q155 719 155 712L159 688L151 680L143 688V744Q143 751 167 756Q167 772 175 772ZM307 752L295 732L307 728Q323 734 323 740V744L315 752H307ZM175 696H187V644Q147 647 147 656Q175
672 175 696ZM175 628H183V580L159 560H151L143 568V608L175 628ZM147 552Q183 549 183 520L179 516L183 488V460L179 444L183 440V436L175 392L179 388V384L171 280L183 268L179 252L183 188V168L175 156V152L183 140V96L179 64L183 36L179 0H151L143 8V544L147
548V552ZM227 540Q391 523 391 508V392Q391 371 379 368H375L363 376H355L347 368Q347 345 387 324L391 300L387 248L391 156V28L351 0H211L203 8V32L207 44L203 60L207 228Q211 244 223 244V252Q211 252 195 296L203 308L195 340H199L211 336V356Q229 385 255
388V404L247 412H243L239 408H235L231 412V416L235 428L231 424H227Q218 424 211 452Q199 452 199 464L203 484L195 492V508H203Q211 508 211 496L207 484H215L227 496V500Q215 500 215 508V520L227 540ZM259 500V488H267V500H259ZM195 436H203V432H195V436ZM307
112V100Q316 60 343 60Q355 73 355 128V132L347 140H343Q307 140 307 112Z" />
<glyph unicode="Q" glyph-name="Q" horiz-adv-x="1004" d="M526 1914Q655 1914 738 1858Q745 1762 774 1762L794 1782V1786L786 1798L802 1814Q890 1725 890 1670L858 1654Q818 1664 802 1694L770 1710Q765 1682 746 1682Q746 1662 718 1654V1650Q718 1637 734
1618V1614L722 1594L726 1566L722 1550L746 1542Q757 1542 770 1610L766 1634Q776 1682 782 1682Q802 1657 842 1638Q842 1629 874 1622L898 1634Q914 1634 918 1514V902Q886 882 886 862V858Q886 848 918 842V726Q894 705 890 670Q867 637 846 578L842 574H838L734
606H730L722 598V594Q730 578 742 578L770 582Q770 564 842 546L862 538L878 542Q917 521 918 514V402Q918 231 842 150L830 158H802Q782 140 782 126L786 122H790L810 126L814 122V114L766 66Q766 52 918 -182Q938 -208 938 -222V-226H698Q686 -218 550 -6H514Q213
-6 130 262Q114 328 114 394V782L122 790H142L158 778H162L194 786Q204 760 214 758H234L246 770Q246 777 130 814L126 818Q114 818 114 826V1514Q114 1787 342 1886Q424 1914 526 1914ZM442 1870V1866H450V1870H442ZM362 1518V742L354 734H350Q303 766 274 766H266L258
758Q294 730 362 698V390Q362 274 458 226L510 218H522Q618 218 658 318Q670 361 670 390V590L678 598L698 594L706 614Q670 632 670 638V1074L698 1098V1102Q698 1109 670 1114V1518Q670 1635 574 1682L518 1690H510Q414 1690 374 1590Q362 1547 362 1518ZM730
1510V1506Q734 1494 754 1494L758 1498V1522L750 1530L730 1510ZM738 1470V1458L746 1450H754Q770 1457 770 1478L766 1482H750L738 1470ZM766 894L790 874Q850 883 850 890V902Q850 911 818 922L806 986L802 990Q802 998 790 998Q774 998 774 954Q769 954 766
894ZM762 822L758 818V814L766 806L770 810V814L762 822ZM810 766Q810 756 842 750L846 754H850L846 766L850 798L846 802H838Q810 787 810 766ZM902 646H910L918 638V562L910 554Q874 564 874 570V578Q892 646 902 646ZM834 462L838 458H846Q855 458 866 494L862
514H858Q834 496 834 462ZM818 426Q818 405 834 398Q844 398 846 434L834 442L818 426ZM790 298V286L798 278H806Q820 278 834 362L822 370Q807 370 802 314L790 298ZM730 146V114L738 106H746L790 190L794 194L790 226L798 250V254L790 262H786Q773 248 730 146Z"
/>
<glyph unicode="R" glyph-name="R" horiz-adv-x="1003" d="M148 1872H516Q924 1872 924 1468V1320L912 1304L924 1288V1220L920 1196L924 1184L900 1080H888L892 1116Q885 1180 872 1180L864 1168V1164L872 1152V1104Q872 1092 856 1092V1088Q856 1080 868 1080L872
1076V1052L864 1044Q833 1076 816 1076Q802 1069 796 1052L808 1032V1028L804 1024V1020L808 1016H812L836 1020L848 1008L808 968H800L796 1000L800 1004L796 1008H792L780 1004Q774 1020 768 1020L748 1004H740L732 1012Q736 1068 748 1068L776 1064L780 1068V1072L776
1084L784 1092V1100Q784 1108 744 1108L732 1116L728 1112L732 1108V1092Q725 1076 684 1060L672 1020L680 996Q674 996 660 968V964Q684 944 684 936L680 916L684 896L680 880L688 872Q688 864 676 864Q587 901 572 916Q572 933 596 952Q596 970 612 976L624 972L628
976V980Q628 988 616 988L612 992V996L616 1016H612L552 912L508 928V916L652 864Q652 856 672 856Q673 836 684 836L712 840Q748 832 748 824V820L724 788V784L732 772V764L724 752V744Q742 744 748 728V724L740 716H724L696 740L708 756L700 764L680 748H676Q658
748 616 796Q577 824 532 824H396L388 816V628L312 608L276 592Q271 564 248 564Q228 564 220 524V516L236 484Q184 437 184 416L188 412H200Q200 439 252 464Q252 470 280 484H292Q314 484 320 468V456L308 440Q328 418 328 404L316 392V384L328 368L324 364L256
384H248V372Q265 340 300 340L364 312V308L360 292Q388 275 388 268V8L380 0H148L140 8V348Q154 368 184 368H188Q203 356 216 356H224V368Q197 368 176 396L148 392L140 404V552Q202 621 212 684L208 704L212 732Q212 771 160 780V784L164 804L140 820V948L144
952Q184 965 184 972Q184 985 140 1012V1212L156 1232V1236H140V1864L148 1872ZM388 1636V1236L384 1192L388 1160L384 1140L388 1096V1040L396 1032H532L576 1036L580 1032H584L600 1036L648 1028L652 1032V1056L636 1076Q650 1108 672 1108L676 1128L668 1136Q668
1173 692 1188L676 1200V1292L684 1304L676 1340V1464Q676 1590 588 1636L536 1644H396L388 1636ZM844 1616V1608H856V1616H844ZM852 1596V1592H860V1596H852ZM852 1572V1532L844 1524L812 1540L796 1528V1516H800L824 1524H828L844 1512H852L872 1532V1536L868
1552L872 1556V1560Q867 1580 860 1580L852 1572ZM852 1476L856 1472L852 1452V1440L864 1400L860 1396V1392L868 1356L864 1332L868 1308L864 1304L868 1280L864 1244L868 1240V1236L864 1232L868 1212V1188H880L876 1200L880 1216L876 1412L872 1416V1420L880
1444Q880 1471 860 1484L852 1476ZM704 1184L716 1144H728V1164L744 1180L776 1152Q816 1160 816 1168V1176L792 1204L780 1200V1172H772L760 1184V1188Q760 1198 776 1200V1208H772Q745 1188 704 1184ZM692 1096L696 1092H700L708 1104H700L692 1096ZM776 1044V1036H784L792
1044L784 1052L776 1044ZM696 1052H704V1048L692 1036L688 1040V1044L696 1052ZM192 1040V1032L200 1040H192ZM236 1028L232 1024V1020L264 1008V1020L236 1028ZM280 1012L276 1008V1004L280 1000H284L288 1004V1008L284 1012H280ZM544 1000L552 992L564 1008L560
1012H556L544 1000ZM308 1004L304 1000V996Q330 974 380 964L384 968V972L320 1000L308 1004ZM684 996L692 988H684V996ZM396 968V964Q406 946 480 932L488 924H492V936L396 968ZM632 960V956L640 948L648 956L644 960H632ZM156 848L160 844H164Q196 848 196 856V872L180
888Q156 872 156 848ZM740 892H764V872L780 848V836Q708 848 708 860V868Q719 868 740 892ZM556 880L552 876V872L560 864L564 868V872L556 880ZM548 852L544 848V840H556V844L548 852ZM664 784L672 776L680 784L672 792L664 784ZM888 796Q900 794 900 764L892
756H888L880 764L888 776V780L880 792L884 796H888ZM896 736L900 732V720L904 612L900 608H872L856 620H852L832 616L828 620V624L832 628V632L828 636H820L804 612H800Q779 612 776 624Q790 652 820 676Q820 712 860 712Q860 720 884 720L896 736ZM784 692V684H776L784
692ZM776 676H780L788 668L768 636H760Q752 636 748 660L776 676ZM916 676H924V596H916L912 624L916 628V632L912 636V640L916 664V676ZM828 660L824 648L828 644H832L840 656V660H828ZM696 628Q696 620 708 620L720 624L736 596Q691 529 684 528L676 536V604L696
628ZM824 604L848 596L852 600L872 596H900L908 588V548Q920 548 920 540L908 528L912 472L892 476L888 472V468Q888 460 908 460L920 420Q916 404 904 404L880 412L872 388L876 384L904 388H908Q914 388 920 372L916 344Q916 324 924 324V316H920L924 216V160L892
164L876 160Q695 218 680 236L676 260Q676 300 712 300Q731 300 764 352L776 364V372L772 376V380L752 376L728 404H724L684 400L676 412V464Q676 511 724 556L748 584L768 568H776L784 576L772 600L776 604H824ZM816 564V556L824 548L832 556V568H828L816 564ZM768
544Q768 516 744 516L740 512V508L744 504H748Q788 509 788 520Q788 541 776 544H768ZM808 528V524L820 512H824L832 520V528L820 540L808 528ZM700 496L704 492H708L716 500L712 504H708L700 496ZM776 468L756 472V468L764 456L760 444Q767 444 776 420L796 424H800Q808
424 816 400L844 396H848L860 408V416Q851 436 832 436L828 440V444L848 476V484L820 504Q797 492 776 468ZM728 488V476H736V488H728ZM716 452L712 448V444L720 436L724 440V444L716 452ZM736 428V416L748 404H756L764 412V424L752 436H744L736 428ZM788 396L796
388L804 396L796 404L788 396ZM692 192Q760 162 760 156Q760 145 800 140L828 144Q828 128 892 120L900 128H916Q928 128 956 4L952 0H712Q676 32 676 188L680 192H692Z" />
<glyph unicode="S" glyph-name="S" horiz-adv-x="954" d="M499 1895Q647 1895 739 1827V1823L731 1803L735 1799H739L775 1803L811 1763Q758 1719 747 1663V1607L755 1599Q766 1599 811 1663H843L863 1667Q891 1603 891 1451V1287L883 1279H751V843Q903 682 903
415Q903 185 751 51V-33L747 -373H735V31L727 39Q635 -13 595 -13L567 19H563Q557 19 551 3L555 -13Q555 -25 491 -25Q154 -25 91 283L127 347Q149 411 175 411L187 407Q187 423 235 423Q275 439 275 455Q261 483 255 483H243Q236 483 231 459Q199 459 199 435L195
431H183L175 439V447Q207 467 207 487L203 491H187Q164 446 143 443Q125 443 111 407L95 395H83V583L91 591H123L243 587L247 583L239 543L243 539H247Q267 539 267 583L271 587H275Q323 568 327 559V391Q327 250 431 207Q443 207 443 199Q427 180 427 159L439
151L475 199H491Q659 199 659 419Q659 613 507 747L459 799V807Q483 838 483 855L471 903Q471 911 507 943Q507 963 527 963Q552 963 575 1023H579L731 867H735V1291L727 1299Q710 1283 691 1279Q665 1279 647 1307V1487L735 1591V1635L727 1643L675 1619Q675 1608
639 1579Q632 1579 607 1627Q575 1655 519 1675L499 1671H491L471 1675Q471 1663 427 1663Q339 1597 339 1463V1387L327 1371Q349 1349 371 1275Q410 1211 427 1167Q461 1167 531 1075V1067Q475 1055 475 1019Q484 1019 491 983V979Q491 970 471 967L447 975Q420
975 395 939L403 891L399 887H391Q368 887 291 983Q152 1124 123 1235L111 1287L115 1307Q95 1307 95 1467V1479H107V1471H131L139 1463L135 1459V1455L147 1447L151 1451H155L151 1455V1459L167 1515L163 1519H159L143 1515L139 1519V1523L151 1527V1531Q149 1540
119 1555L107 1551L103 1555Q103 1595 143 1695Q237 1895 499 1895ZM139 1499H147V1495H139V1499ZM691 1447Q696 1417 707 1415H711L731 1451L735 1455L719 1467Q694 1459 691 1447ZM771 1383V1371H807Q835 1402 835 1431L823 1443Q771 1421 771 1383ZM655 1379Q662
1363 683 1363L699 1383V1391L687 1403H683L655 1379ZM235 1391V1383H239V1391H235ZM859 1375Q862 1351 871 1351L879 1363V1375L871 1383H867L859 1375ZM239 1171V1155L251 1143H255Q265 1143 275 1175L263 1183H251L239 1171ZM499 863V859Q499 795 579 711H611Q622
711 647 755Q647 799 595 799L591 803V839L603 879V883L583 903H555Q525 891 499 863ZM771 763L779 735H787L791 771L787 775H783L771 763ZM779 707Q779 691 763 691L751 675V651L759 643L791 683V699L783 707H779ZM711 683Q720 619 727 619L735 627V675L723 687H719L715
683H711ZM147 551V535L159 523L167 531V551L159 559H155L147 551ZM851 467V463L859 455L863 459V463L859 467H851ZM199 391L191 379L199 371H203L211 379L199 391ZM355 59Q355 38 371 31H375Q386 31 415 107Q423 107 427 143L423 147H411Q396 147 383 91Q359 91
355 59ZM491 7V-1H499V7H491Z" />
<glyph unicode="T" glyph-name="T" horiz-adv-x="954" d="M138 1872H238L258 1868L282 1872H378Q386 1872 386 1840Q403 1824 418 1824L454 1856H470Q480 1856 486 1824H498Q518 1842 518 1856L510 1864V1872Q528 1872 550 1852Q558 1852 558 1868L562 1872H850L858
1864V1692L854 1688V1684L834 1688Q812 1685 786 1644H622L598 1652L586 1648L574 1652L570 1648V1644L586 1628V1624L578 1612L582 1592L562 1584L522 1652Q438 1670 438 1704Q402 1712 402 1720L414 1764Q378 1800 366 1800Q366 1784 302 1776H298Q291 1776 278
1812Q262 1812 262 1820L214 1812Q200 1836 174 1836L142 1832L138 1836V1872ZM410 1872H414V1864H410V1872ZM206 1772Q222 1766 222 1760L218 1736Q218 1708 286 1704L290 1700V1680L266 1660L258 1668H254Q254 1644 246 1644H82L74 1652V1732L78 1736V1740L94
1736Q184 1736 206 1772ZM642 1760V1744L650 1736H654L658 1740H662Q658 1768 650 1768L642 1760ZM350 1632L390 1608Q399 1608 402 1628H410Q445 1580 474 1580Q590 1580 590 1516V584Q590 576 574 576L570 572V568Q570 553 590 532V8L582 0H410L342 56V740L350
748L362 744V748L342 768V956L354 968L362 960L354 948V936Q354 931 394 920L398 916Q403 958 414 968Q404 996 382 996L378 992H374L370 996H366L346 992L342 996V1008L346 1024L342 1052V1624L350 1632ZM438 536V524Q438 517 466 512Q490 517 490 524V528Q490
538 458 544H446L438 536ZM490 468Q490 452 526 444Q550 453 550 460V480L538 492H534Q490 482 490 468ZM386 436Q400 408 426 408Q442 425 442 440V452Q442 480 422 480Q386 470 386 444V436ZM486 380L530 352Q570 352 570 384Q570 409 526 420H514Q486 402 486
380ZM406 360L394 344V340Q398 328 418 328H426L434 336V348Q434 356 406 360Z" />
<glyph unicode="U" glyph-name="U" horiz-adv-x="1068" d="M176 1896H408L416 1888V1220L408 1212L328 1240L320 1228V1220H324L336 1224Q368 1219 368 1208L360 1192L372 1176L384 1184H392V1176Q416 1176 416 1096L412 1092V1088L416 1072V1060L408 1048L416
1024V1016H412L416 992Q416 949 404 928L412 920L400 888Q416 888 416 728V628H408L384 648L376 640Q408 617 416 596V392Q416 259 528 228L564 224Q648 224 688 292Q730 292 756 244L780 240V248L724 300L764 320L776 312H780Q837 334 860 380Q860 392 868 392H952L960
384Q949 240 928 240Q920 240 916 284Q894 308 868 308Q816 308 816 276Q804 276 804 268L808 264H812L832 268Q848 262 848 256L824 220L808 232H804V220Q832 192 832 184L828 172L844 160H848V164L844 176L848 180H852Q879 168 888 156Q872 110 816 72Q791 52
728 28H724L712 36H680V28H704V24Q696 4 560 0L544 4L532 0Q395 0 280 100Q280 134 232 156L224 180V188L228 192V196L224 200L220 196H216Q204 196 188 256Q206 310 216 312Q228 312 236 328V340L216 344L196 328H192Q168 337 168 368V872L176 884L168 896V1164Q168
1174 204 1176L208 1180V1184L184 1228V1240L192 1248Q203 1240 228 1240V1236L232 1240H236L256 1224Q264 1224 264 1244Q284 1244 284 1236L300 1244L312 1240V1248Q241 1268 216 1284L200 1280L168 1304V1360Q218 1360 264 1332L300 1356Q289 1388 260 1388Q258
1424 244 1424L220 1436Q193 1416 172 1416L168 1420V1888L176 1896ZM720 1896H784L820 1892L860 1896H952L960 1888V1024L952 1016Q891 1036 880 1052L868 1048L864 1052V1056L868 1072L860 1080V1096H868Q876 1096 876 1084L872 1072H880L892 1084V1088Q880 1088
880 1096V1108L888 1120V1124H884L872 1120L868 1124V1128Q868 1136 884 1136Q882 1157 860 1188V1232L856 1412L852 1416H844L852 1268L848 1132L844 1120L848 1116V1112L844 1100L848 1076V1064L844 1060V1056L808 1064L804 1060V1056L820 1044L840 1048L844
1044V1032L836 1024H832L768 1056L764 1052H760L736 1068L744 1076H748L760 1064L780 1068L784 1064H788L792 1068V1072Q729 1094 712 1108V1504L716 1528L712 1548L720 1572L712 1580V1604L716 1620L712 1636V1648L716 1672L712 1712V1852L716 1868L712 1884V1888L720
1896ZM216 1504V1488H224L240 1504V1512H224L216 1504ZM336 1376V1360L348 1348L360 1360V1376L348 1388L336 1376ZM300 1220V1212L316 1208V1216L300 1220ZM176 1204H188V1196H176V1204ZM368 1100L376 1092H380V1100H368ZM724 1088L732 1080V1072L724 1064L716
1072V1080L724 1088ZM724 1044Q743 1044 776 1020Q835 1020 844 972L836 868L848 856L844 840L848 776V756L840 744V740L848 728V684L844 656L848 620V560Q836 545 836 532V496Q836 484 820 484L800 492Q782 484 780 476V472H784L796 480H800V472Q800 460 784 460L764
464L760 452L764 440L728 416V408Q740 393 740 380Q720 369 720 344L716 340H708L716 412L712 436V456Q712 486 724 488L740 476Q760 486 760 512L736 524L720 520L712 528V976L720 984L724 980H728V984Q712 1002 712 1040L724 1044ZM800 1032L812 1028V1020H808L800
1028V1032ZM920 1016L944 1004L956 1008L960 1004V996L956 992V988Q931 988 912 1008L920 1016ZM288 988L304 976H308V984L296 996L288 988ZM756 980V976Q756 967 776 964L780 968V972L756 980ZM320 976V972Q320 964 344 960V968L320 976ZM920 968Q950 960 960
940V412L956 408V404L900 412L888 400H876L868 408V416L880 432L868 468L872 472H876L888 468L892 472V484L868 544L884 572V580H868V620L872 632L868 648L872 816Q876 832 888 832V840Q876 840 860 884L876 916H880L884 912H888L892 916V920Q882 920 876 948L920
968ZM380 908L384 904H392V916H388L380 908ZM216 864L224 856V864H216ZM212 828H220V836L212 828ZM228 808L248 796H252L260 804L252 816V820Q252 828 264 828V836H260Q238 836 228 808ZM340 680L352 668L360 676L356 680H340ZM788 544L796 536L808 548V556H800L788
544ZM816 520V512H824V520H816ZM832 452L836 448V420Q836 412 824 412L808 424Q825 452 832 452ZM760 432H768V420H760V432ZM892 428V420H904L896 428H892ZM324 356L300 360L296 356V348L304 340L340 360V364H336L324 356ZM264 340L272 332H280L288 340L280 348H272L264
340ZM700 328H712V316H708L700 324V328ZM920 232L928 224L920 216L912 224L920 232ZM536 200V188H544V200H536ZM568 172V164H576L584 172V176H580L568 172ZM140 152Q157 147 164 132V128H160L136 148L140 152ZM548 24V20L588 28V36Q548 34 548 24Z" />
<glyph unicode="V" glyph-name="V" horiz-adv-x="1009" d="M300 1894L304 1890H308L304 1870V1830L316 1818H328Q340 1818 340 1842H348L360 1758H336L324 1746V1738L336 1726L356 1738Q368 1738 392 1518L436 1226L428 1218Q443 1218 456 1070Q536 552 536 430L532
426H528Q504 442 480 442H424Q408 442 392 462L380 458Q374 474 352 474L336 462H328L100 1890L104 1894H300ZM756 1894H984L988 1890H992L932 1538L912 1542L900 1530V1526L908 1514V1510L880 1486L844 1514L840 1510V1506Q880 1474 880 1458L864 1442V1438H876Q876
1450 884 1450L900 1442L912 1446L916 1442V1438Q916 1362 884 1362L876 1338L884 1330L888 1350H900V1338L876 1314V1310L888 1294L884 1290H880L868 1298H860V1290Q872 1277 884 1242L880 1238H876L864 1246H856L844 1206H848L864 1218H872L880 1210Q877 1170
868 1170Q824 1173 824 1182L828 1194H824L808 1186L804 1190V1210Q825 1254 840 1254V1262Q820 1276 820 1290H812V1278L788 1178L760 1182H740V1174Q764 1174 764 1166V1158Q728 1148 728 1138V1130H736Q790 1166 804 1166H832L872 1154Q839 942 824 918L828
890Q828 868 808 826L800 786L808 778Q785 590 764 590V586Q776 586 776 578L684 26L668 22L640 26H628Q564 26 564 14V-226H552V18L544 26H432L404 22Q372 176 344 386L348 390H512L532 394Q540 385 540 366H548Q548 523 648 1178L652 1182H668L696 1178L700 1182V1186Q652
1193 652 1206Q697 1562 708 1562H712V1566L704 1582Q707 1614 716 1614L736 1598H744V1606L712 1634Q744 1894 756 1894ZM312 1782Q316 1770 336 1770L344 1782V1794L332 1806L312 1782ZM832 1782L840 1774H848V1782L840 1790L832 1782ZM852 1754Q852 1745 872
1742L876 1746V1754L868 1762H860L852 1754ZM804 1746L820 1730Q826 1730 832 1746L828 1758H816L804 1746ZM860 1734L852 1722V1718L868 1702Q884 1708 884 1714V1718Q876 1734 860 1734ZM900 1730V1718H904L912 1726L908 1730H900ZM808 1706V1702L816 1694H820V1706H808ZM908
1622L924 1610H932L940 1618V1622L932 1634L940 1658L932 1666Q925 1666 908 1622ZM756 1594L752 1590V1586Q762 1570 828 1518H832V1526L756 1594ZM904 1566L912 1558H920L924 1574H912L904 1566ZM716 1550V1542L732 1518H736Q736 1540 720 1550H716ZM740 1510L736
1506V1502L740 1498H744L748 1502V1506L744 1510H740ZM756 1490L752 1486L788 1410H800Q800 1424 756 1490ZM916 1490H924V1470L912 1458L904 1470V1478L916 1490ZM820 1390L808 1398H804L820 1350L808 1338L800 1346L808 1358L804 1362H800Q773 1326 752 1326Q743
1328 732 1358H728L724 1354H720Q724 1314 732 1306L772 1310H776L788 1302L828 1314L844 1310H852L860 1318L828 1370Q828 1379 856 1398L860 1426H852Q845 1425 828 1390H820ZM880 1394V1390H888L896 1398V1402H888L880 1394ZM756 1266L768 1254L772 1258V1274H764L756
1266ZM708 1178L712 1174H720V1186H716L708 1178ZM796 1146V1138H804V1146H796ZM792 1118V1110H804V1118H792ZM796 1082L792 1054L796 1050H800L808 1070L804 1082H796ZM756 1058L760 1054H768V1066H764L756 1058ZM776 962L804 954V962L796 974V978Q796 1012 808
1026L792 1042Q776 1042 776 962ZM804 990L812 982V990H804ZM788 910L784 906V898L796 886H804V894L788 910ZM736 782V774L764 746H772Q780 746 788 774L784 778L764 774L736 782ZM668 774L664 770V758H668L676 766L668 774ZM620 738V730L628 722L640 734V738L632
746H628L620 738ZM648 726Q654 710 660 710L680 726V734L672 742H664L648 726ZM596 726L588 714V710H596L604 718L596 726ZM612 690V686L624 674H628L640 686V690L632 698H620L612 690ZM664 678V666H668L676 674V678H664ZM680 542V534H684Q707 534 752 574V582H744Q706
550 680 542ZM656 518L660 514H668V526H664L656 518ZM620 494V486H624L648 506L644 510H640L620 494ZM584 474V462L592 470L588 474H584Z" />
<glyph unicode="W" glyph-name="W" horiz-adv-x="1549" d="M338 1872Q346 1872 366 1676L410 1216L398 1204L402 1200Q422 1184 422 1080L418 1076H414Q390 1092 322 1092V1084Q406 1072 406 1064V1056Q388 1056 334 1016L294 1056V1076L310 1096L302 1104L282
1100H270L254 1112L246 1104H238L202 1136V1140Q211 1160 234 1160V1164L222 1180Q233 1200 258 1200Q290 1200 302 1168V1144L294 1132V1128Q302 1112 314 1112Q338 1116 338 1124V1128L326 1144Q328 1156 354 1156V1160Q344 1184 318 1184V1192L334 1204L338
1208V1220H326L302 1200H294L282 1212V1216L290 1228V1232L282 1240H270L254 1232V1224L262 1212L258 1208Q242 1212 242 1224L246 1236L230 1244L214 1224H210L194 1236L182 1224H178L174 1244V1260L186 1276V1284L166 1304V1308L170 1328Q159 1328 130 1608L126
1640L130 1652Q120 1652 94 1868L98 1872H338ZM918 1872Q934 1872 942 1740Q1110 481 1110 340H1118Q1138 690 1266 1872H1502Q1510 1872 1510 1860L1270 0H974Q962 0 926 348Q807 1230 806 1388H798Q762 956 634 0H342Q326 0 318 132L274 464L290 472L262 552L242
720L246 732Q236 732 234 780L246 784V788Q226 788 218 920L290 964Q314 976 314 992L326 1000Q446 906 446 876L490 340H498Q522 672 546 800Q562 800 562 808L550 824V852L566 872V888L558 900Q567 1040 586 1040Q614 1046 614 1056Q614 1061 578 1072Q588 1188
606 1188Q635 1188 654 1216L646 1224L602 1200L598 1212L682 1872H918ZM342 1280L350 1272L358 1280L350 1288L342 1280ZM318 1252V1228H338Q346 1228 350 1256L346 1260H326L318 1252ZM670 1252V1240H678V1252H670ZM662 1236V1228H666V1236H662ZM362 1176V1172H366Q387
1172 390 1184L382 1192L362 1176ZM234 1144Q237 1120 246 1120H250V1128L242 1144H234ZM654 1108L662 1080L642 1060V1052L662 1032H698L706 1040Q694 1050 654 1056V1060L674 1088V1100L662 1112L658 1108H654ZM198 1096Q229 1096 254 1056Q268 1040 290 1040L318
1012V1004Q305 1004 282 976L218 940Q210 945 202 1036L206 1040V1044Q194 1067 194 1092L198 1096ZM214 1056V1052L226 1064H222L214 1056ZM426 1052V1048L422 1020Q434 1020 438 932L434 928H430L346 1004Q403 1052 426 1052ZM722 1044V1036H726V1044H722ZM318
960L314 956V952L318 948H322L326 952V956L322 960H318ZM298 812V808H306L314 816L310 820H306L298 812ZM258 796L262 792H266L286 800V808H282Q258 804 258 796ZM566 800L574 792L578 796V800H566ZM582 792V784H594V792H582ZM362 716V704L390 696L394 700V708L386
716H362ZM334 448L310 452Q298 450 298 420L326 384L330 388H334L314 436Q366 443 366 464V468H358L334 448ZM338 376V372H346V376H338ZM350 364V356H362V364H350Z" />
<glyph unicode="X" glyph-name="X" horiz-adv-x="1036" d="M395 1872Q409 1861 447 1696L443 1676Q462 1676 507 1480Q563 1297 563 1236Q535 1236 535 1212Q498 1180 483 1180Q467 1180 467 1152Q440 1152 435 1104Q427 1104 419 1076Q419 1056 471 1056Q471
1083 535 1136L547 1128H551Q558 1128 563 1148L559 1172V1184H571V1172H575Q582 1172 587 1200H591Q683 1187 683 1176Q703 1177 731 1216H735L751 1204L767 1208L791 1196L715 944L1003 4L999 0H751Q739 0 603 552L615 564V580Q615 612 591 612L579 700H571V696Q571
589 391 0H151L143 8Q206 228 219 228L259 172Q275 172 287 160H315L331 176Q331 204 283 224L259 260L283 288Q283 313 243 328Q267 422 291 460Q291 512 327 512H331L379 500Q404 500 415 520V524Q386 558 323 580V584Q331 628 343 628L371 588Q395 597 395 604L387
632L391 656H387L355 648L351 652V668Q365 744 379 744L391 732L387 704L391 700H395L403 708H407Q419 708 419 692L415 672L419 668H423Q431 668 431 688H435L459 684L479 692L527 676H539L559 696Q543 711 447 744Q447 775 399 820V824L431 944L411 1008L415
1032V1040Q387 1064 375 1136V1140L379 1152Q359 1152 295 1392L147 1868L151 1872H395ZM991 1872L999 1864Q961 1716 943 1716L907 1680L923 1628V1624Q923 1593 907 1588L895 1592L883 1588L863 1608Q847 1602 847 1596V1592L859 1576Q859 1516 819 1516Q819
1491 759 1484L755 1480V1460L795 1420V1416L787 1408L731 1420Q725 1403 691 1376Q691 1362 643 1328Q640 1309 623 1296Q618 1256 599 1256L595 1260V1264Q631 1446 751 1868L755 1872H991ZM831 1348L835 1344H839Q830 1316 823 1316H819L811 1324V1332L831 1348ZM623
1104L631 1096L639 1104L631 1112L623 1104ZM475 848L471 844V840L475 836H479L483 840V844L479 848H475ZM499 824L511 812H515L523 820V824L511 836L499 824ZM371 456L387 392Q404 382 431 332H455Q475 332 475 412Q471 436 463 436L447 432Q447 459 415 484H407Q384
484 371 456Z" />
<glyph unicode="Y" glyph-name="Y" horiz-adv-x="1036" d="M379 1872Q389 1872 459 1540Q543 1214 543 1164L531 1160L507 1168L487 1148L503 1132Q516 1132 531 1144Q555 1144 555 1100L551 1096H547L527 1108L523 1104H519L507 1108L503 1104V1084Q535 1084
535 1060L547 1056L559 1060L567 1016H563L499 1028Q491 1017 455 1004L451 984V980Q451 942 583 908H587Q595 916 623 916L647 940L663 928H671L679 936V956L643 980H635Q624 980 623 960Q579 966 579 980V1016L591 1028L603 1020L607 1024V1032L591 1044L587
1048V1052Q587 1131 719 1672Q757 1872 771 1872H1011L1019 1864L823 1172H819Q810 1172 791 1244Q771 1328 763 1328H755Q747 1328 747 1316L775 1192Q792 1189 799 1084L739 888Q723 888 723 864Q731 864 731 852Q713 764 699 764Q699 778 659 784L655 780V776Q680
747 699 744L695 704V8L687 0H455L447 8V580L455 588L463 580H479L491 592V596L479 608L451 600L447 604V708L435 764L515 784L531 780Q531 794 587 812V820L579 828H563L471 804L467 808H463L427 792Q383 934 383 960L387 964H427L435 972V976Q410 1003 363 1016L127
1868L131 1872H379ZM695 1540V1524Q695 1451 739 1340H743Q755 1340 759 1372Q735 1441 727 1448V1456Q727 1530 703 1548L695 1540ZM675 1256V1248L683 1240L699 1248V1256L691 1264H683L675 1256ZM319 1240V1236L347 1208H355L363 1216Q353 1240 327 1240H319ZM623
1148Q623 1108 671 1108Q687 1108 723 1080L759 1108Q757 1128 715 1148L719 1168Q719 1177 683 1184H675Q656 1169 631 1164L623 1148ZM643 844L631 848Q603 843 603 832V828Q610 812 631 812L695 844V852L687 860H683L643 844ZM475 756L471 752V748L495 732L503
740Q497 756 475 756ZM491 500L499 492L519 496L531 484H535L547 496L527 512Q491 508 491 500ZM603 496L611 488Q632 488 635 500L627 508Q603 506 603 496Z" />
<glyph unicode="Z" glyph-name="Z" horiz-adv-x="921" d="M159 1872H863L867 1868H871L875 1660V1056L867 1048L863 1052V1056L859 1592H855Q846 1592 767 1344V1032L763 692L759 688H755L751 692V1288H743Q644 995 623 964Q611 964 611 956V952L619 940L367 224L371
220H887L895 212V8L887 0H287Q247 36 247 44L251 72L247 76H239L167 32Q156 32 143 64V80Q179 109 179 132Q207 151 207 192Q223 198 223 204Q203 209 203 216V228L215 240H223L255 232L263 240V248L251 264V276Q267 311 287 328V340Q271 418 235 444Q203 462 203
468Q245 604 263 604Q284 618 291 636L279 680Q303 689 303 696V700L291 716Q313 824 363 824Q399 824 399 840L347 876Q347 909 383 932L371 944L611 1640L607 1644H299Q231 1644 231 1664L223 1688Q197 1678 195 1668L199 1652L187 1644H143L135 1652V1676L143
1732L135 1764V1832Q135 1851 159 1872ZM455 964V956L463 948H467Q481 948 515 976L535 972Q556 972 559 984Q547 996 515 1000L511 1016H499L455 964ZM579 964V960L587 952H599V960L587 972L579 964ZM415 948V940H419V948H415ZM379 872Q380 865 419 848L423 832L399
812Q414 785 443 768H447Q459 768 463 800L427 868V904H419Q399 880 383 880L379 876V872ZM455 880V872H463V880H455ZM331 716L355 692H363L379 708V720L371 728H363Q334 728 331 716ZM235 156L239 152H259Q287 152 287 192Q281 208 275 208H271Q235 176 235 156ZM251
100V96L259 88H263L271 96V104L263 112L251 100Z" />
<glyph unicode="[" glyph-name="bracketleft" horiz-adv-x="1707" />
<glyph unicode="\" glyph-name="backslash" horiz-adv-x="1008" d="M330 1988Q340 1988 510 1284V1280L494 1292Q474 1279 474 1252Q474 1239 494 1212V1184Q494 1108 482 1096V1092L490 1060V984Q468 953 466 932Q482 932 482 924V920L478 916L466 920H462V916L470
904V892Q470 884 458 884V880L470 868H478L474 880Q474 892 482 892H490V876L482 868L486 848Q486 836 474 836Q467 808 458 808H454L450 812L454 800V796L450 792L434 800L138 1980L146 1988H330ZM522 1212Q532 1212 542 1156V1152Q510 1134 510 1128H506L502
1132Q504 1212 518 1212H522ZM550 1108Q559 1108 570 1040V1036L550 1016V1012L558 1000L574 1004H578L682 596V592L678 588Q698 549 826 12Q826 0 818 0H638Q629 0 502 524L510 536V540L502 552V572L506 636L502 652L514 664L506 768V772L510 776L502 820V824L506
828L502 844V872L506 900H502V912L506 916L502 932V992L506 996L518 988H526L538 1000V1008L526 1020H522L510 1012Q498 1015 498 1036V1052L502 1072Q542 1097 542 1108H550ZM466 1080L462 1084H454L438 1068L454 1052H458Q466 1052 470 1080H466ZM418 1068H414L398
1052L414 1036H418L430 1048V1056L418 1068ZM490 816H482V820H490V816ZM474 740V720L486 724H490L482 692L490 680L474 652Q463 652 446 760H458L474 740Z" />
<glyph unicode="]" glyph-name="bracketright" horiz-adv-x="1707" />
<glyph unicode="^" glyph-name="asciicircum" horiz-adv-x="1707" />
<glyph unicode="_" glyph-name="underscore" horiz-adv-x="1707" />
<glyph unicode="`" glyph-name="grave" horiz-adv-x="1707" />
<glyph unicode="a" glyph-name="a" horiz-adv-x="972" d="M665 1851Q678 1851 717 1543Q765 1270 765 1215Q761 1203 741 1203Q711 1236 697 1283H685V1275Q695 1264 709 1203Q725 1203 725 1195Q725 1187 713 1187L709 1183V1179L717 1171L733 1179Q735 1159
745 1159V1147H741L729 1155L721 1147L737 1131H741L753 1139Q773 1123 773 1103Q765 1103 757 1079L761 1075L757 1059Q757 1029 777 1019L785 1027L781 1051L785 1055H789Q797 1044 801 1003L781 999V995Q781 987 805 979L817 895L813 891H809L777 907V915H769V907L773
891Q773 857 713 835L709 831V827L713 823H721L745 835V831L709 791L605 779Q597 779 585 931Q609 941 609 955L605 975L609 979L605 983H601Q593 959 585 959Q573 959 549 1219Q533 1302 513 1583H505Q505 1466 413 759L409 755L413 743L405 667L409 663H577L593
659Q613 663 613 675L605 743L613 751L605 763L613 771H637L685 783L689 779V775L685 771V767L689 763Q721 785 793 795Q837 788 837 763L865 571L861 567H853Q830 580 821 595V631L813 659H805V643L809 615L797 611L721 663V659Q733 641 793 599Q873 543 873 527L957
-17L953 -21H817L809 -29V-485H797V-29L789 -21H713Q702 -21 673 267L645 459H617L609 451V-245L605 -385H597V451L589 459H377Q366 459 337 171L309 -21H137Q116 -5 101 -5Q93 -5 93 -17L89 -21H69L65 -17H61L349 1847L353 1851H665ZM769 1191L781 1139L777 1135H773L765
1147L769 1175L761 1183L769 1191ZM737 1103L733 1099V1095L737 1091H741L745 1095V1099L741 1103H737ZM697 1023L693 1019V1015Q716 991 737 991Q746 991 749 1019L745 1023H741L729 1015L697 1023ZM633 999L629 995V991L633 987H637L641 991V995L637 999H633ZM729
927L741 923Q758 935 797 943V959L781 979H765Q729 939 729 927ZM621 943L633 935L653 955Q647 971 641 971H637Q621 965 621 943ZM665 951Q673 911 689 911Q707 919 709 927V935Q681 935 681 955L677 959H673L665 951ZM593 911V903L601 895H613L621 903V907L609
919H601L593 911ZM645 907V895H657V907H645ZM717 879L725 871H733V887H725L717 879ZM813 871Q825 867 825 847L805 827V819L809 807H805L789 803L781 843Q805 851 805 867L809 871H813ZM757 819L765 811V807Q765 800 745 795L741 799V803L757 819ZM769 783V771L789
759H797Q793 783 785 783H769ZM745 755V743H749L757 751L753 755H745ZM665 743L669 739H673L677 743V751H673L665 743ZM789 739L797 731H801L809 739L801 747H797L789 739ZM617 735L621 731H625L633 739L629 743H625L617 735ZM633 711L637 707H641L653 711Q657
694 705 667H713V671L657 723L661 727V731L657 735H653Q633 729 633 711ZM773 719V711H785V719H773ZM797 711V707L801 679H809L821 691L809 711H797ZM849 535L841 523V519H845L857 531L853 535H849ZM825 507V503L833 495L837 499V507H825ZM813 479L797 455V447H801Q811
449 821 475L817 479H813ZM745 395V387H753Q774 401 793 435V439H785L745 395ZM805 335V331L813 323L817 327V335H805ZM845 315V307H853L861 315L857 319L845 315Z" />
<glyph unicode="b" glyph-name="b" horiz-adv-x="956" d="M103 1872H467Q867 1872 867 1468V1248Q867 1082 735 980Q891 882 891 704V372Q891 105 651 20Q577 0 495 0H487Q463 12 463 24L467 36H455Q448 36 443 0H103L95 8V124L107 140L95 156V276Q123 276 163
208Q167 196 187 196V212H195L227 180V176Q195 176 195 140Q211 140 211 120L227 108L231 112V116Q231 134 215 152V168H227Q254 168 315 112Q370 72 387 48L411 40H415L423 48Q404 76 379 76L263 172V192L243 188Q182 235 175 248Q152 248 119 324L143 344V360L95
392L103 404L95 412V472Q95 480 127 484V492L115 512L119 516H123L151 512V520Q95 530 95 536V548L103 556L95 592Q115 597 115 604Q115 614 99 616L95 620V736L103 744L127 724H135Q135 739 151 768V772H139Q139 760 131 760L127 764L131 768V772L127 776V780L103
772L95 784V792Q114 792 123 800L135 796L143 804H147L159 796L183 800L187 796H191L195 800V804Q187 804 179 828H175L155 816L151 820H147L115 804L95 820V824Q99 836 119 836V848Q95 848 95 856V860L107 872H115L159 868L223 888Q379 893 379 904L391 900L467
908L487 904Q519 915 519 924L511 932H475L459 920L455 924H451L435 916L431 920H427L219 896L195 900Q195 889 99 884L95 888V900Q95 913 107 928V944L95 960V972Q95 978 111 984L127 980L135 988L131 992Q119 1000 115 1020Q103 1020 103 1036L95 1044V1316Q95
1324 127 1340Q127 1353 151 1376Q151 1393 239 1460Q239 1469 327 1548H335V1132Q335 1117 319 1096V1076L347 1068H467Q577 1068 607 1172Q619 1196 619 1248V1464Q619 1603 515 1640L479 1644H443L435 1652L443 1664L435 1672L395 1644H391Q378 1684 371 1684H359L351
1676Q377 1666 379 1656V1652Q379 1644 339 1644L335 1640V1612Q335 1563 287 1532Q249 1485 131 1384Q131 1372 103 1352L95 1360V1416Q115 1436 115 1468Q95 1473 95 1480V1864L103 1872ZM451 1704L459 1696V1704H451ZM447 1688V1680H451V1688H447ZM107 1644V1624L115
1616L123 1628V1644L115 1652L107 1644ZM267 1444L275 1436L283 1444L275 1452L267 1444ZM203 1088V1080L211 1072H219V1080L211 1088H203ZM207 1064L203 1060V1040L211 1032L215 1036V1056L207 1064ZM207 1020L183 988V976L199 948H207L231 972V976Q231 984 199
988V992L215 1016L211 1020H207ZM147 988H155V996L147 988ZM527 972V968Q543 952 547 928L579 916L587 924L599 920Q615 926 615 932Q615 940 603 940L563 936L559 940V944L571 980L555 996H551L527 972ZM643 948V940L651 948H643ZM623 936L627 932H631V944L623
936ZM339 864L335 860V228L343 220H475Q592 220 627 304Q647 353 647 432V648Q647 860 503 860H367L339 864ZM111 760H123V752H111V760ZM215 716L211 712V708Q229 692 239 692L247 712L243 716H239L235 712H231L215 716ZM211 548L207 544V536H211L219 544L215 548H211ZM163
528V520Q195 523 195 532L187 540H175L163 528ZM159 456L147 460L143 456H139L123 460L111 424Q118 423 135 388H139L143 392H147Q147 409 131 432V440Q131 448 143 448L175 444L183 456V468H175L159 456ZM267 444L263 440V436Q263 426 291 420L295 424V440L267
444ZM195 412L191 408V404H203L195 412ZM147 380Q156 356 163 356L175 360L183 352H195V356L191 376L199 384V388L191 396L147 380ZM307 368L315 360L319 364V376H315L307 368ZM291 356L275 336L283 328L299 352L295 356H291ZM203 348V340L211 348H203ZM211 292V284L219
276H247L255 284L239 304V312L267 316V324L247 328Q222 328 211 292ZM95 320H103Q115 316 115 296H107L95 308V320ZM243 120L235 100L251 84H259L247 100L255 112V120H243ZM479 36H483L499 48V60L491 68Q482 68 479 36Z" />
<glyph unicode="c" glyph-name="c" horiz-adv-x="1003" d="M522 1920Q785 1920 878 1700Q906 1610 906 1516V1312L898 1304H858L850 1296V1112Q850 1048 838 1048L834 1052V1296L826 1304H758L750 1296V1192H738L734 1280V1296L726 1304H666L658 1312V1520Q658
1652 570 1688L522 1696H518Q374 1696 374 1520V400Q374 277 454 236Q467 228 534 220Q534 200 550 200Q570 200 570 228Q650 283 650 324Q658 324 658 344V608L666 616H726L778 612L834 616H898L906 608V400Q906 316 890 316L846 308L826 336H822L810 324Q810
303 830 292H886L894 284Q882 189 786 84Q669 4 574 4H546Q546 30 518 44Q512 92 498 92Q449 92 426 48L422 44H418L394 64Q370 57 346 36H338Q259 58 194 148Q126 246 126 404V528Q142 547 142 560L126 576V1516Q126 1791 330 1884Q406 1920 522 1920ZM190 600L202
592Q223 592 226 604L206 620H202Q193 620 190 600ZM686 468V460Q686 438 714 420H718Q734 425 734 456V488L726 496H702Q686 490 686 468ZM306 436L302 432V424H314V428L306 436ZM746 364Q755 340 762 340L770 348V364L762 372H754L746 364ZM846 196V188H850V196H846ZM506
148Q509 124 518 124H534Q543 124 546 152L530 164H522L506 148ZM474 28H502L518 8L510 0H490Q469 0 466 12V20L474 28Z" />
<glyph unicode="d" glyph-name="d" horiz-adv-x="1081" d="M167 1872H555Q851 1872 931 1660L943 1620L939 1616H935Q911 1616 891 1636H883L871 1624L919 1588L947 1592Q963 1562 963 1468V1456L955 1424L963 1416V1412Q963 1404 947 1404Q932 1369 923 1368L879
1392L859 1360Q868 1341 919 1300Q943 1309 943 1340Q943 1352 951 1352H955L963 1344V1220Q963 1197 947 1180V1172Q947 1164 959 1164L963 1160V1156L959 1152L963 1132V1120Q963 1089 927 1064Q927 1052 919 1052L899 1056L895 1052V1048L907 1032V1028L895
1016H879L847 1048Q837 1048 835 1032L839 1028V1024Q839 996 763 980L739 896Q747 833 771 800Q795 800 803 760L827 744H839Q854 744 875 760H879Q912 729 927 704V700L903 672V664Q931 633 931 620L927 580Q939 580 939 564L923 528H911Q911 539 891 556Q891
574 843 600V604Q843 617 855 632Q855 650 811 656Q794 684 719 724L715 728V1120Q723 1136 739 1136L779 1132L787 1144V1148Q787 1156 767 1156V1160L747 1156H727Q715 1160 715 1180V1464Q715 1590 627 1636L575 1644H415L407 1636V816Q407 786 375 772L371
768V756Q383 736 403 736L407 708V632Q407 623 379 616V604L391 588V584H383Q375 584 359 616V628Q359 636 391 636L395 648Q391 704 379 704H367Q351 704 339 644L343 620V612L319 580L327 572H335L351 580L367 572L383 576L407 552V228L415 220H547Q619 220 655
248Q679 232 707 228Q708 222 803 180V172Q771 94 771 68V64L779 56H787Q806 56 827 152L823 156V160L843 200L839 220Q853 239 867 284Q907 357 915 388L927 400Q935 400 955 300Q947 260 939 260Q926 292 919 292Q903 287 903 256V248L915 236L935 240L939 236V232Q931
214 923 212H879L863 196Q895 169 895 160Q878 111 835 76Q728 0 555 0H295L291 4Q284 32 259 32L251 16L255 4L251 0H167L159 8V564Q181 564 187 548L183 528L187 524H191Q267 542 267 552V556Q267 563 239 572L203 568L191 584Q159 591 159 600V1864L167 1872ZM819
1668L811 1656V1652L827 1636H831Q861 1636 863 1648Q863 1660 819 1668ZM823 1364V1360L835 1348H839Q851 1352 851 1372L847 1376H835L823 1364ZM879 1152Q879 1134 919 1132Q947 1142 947 1148Q947 1160 923 1172L879 1152ZM819 1148L827 1140H851L863 1152Q859
1164 839 1164H835L819 1148ZM847 1096V1080L855 1072H859Q908 1088 911 1096V1100Q901 1120 879 1120H871L847 1096ZM803 920L807 916V908H795V912L803 920ZM883 840H891Q923 815 923 784L927 756L923 752H919Q879 789 879 816L883 840ZM955 788H963V728H955V756L947
768V772L955 788ZM747 760V752H751V760H747ZM767 744V732H775V744H767ZM807 716Q807 708 831 704V712L819 724H815L807 716ZM959 704L963 700V656L955 648L951 652H947Q950 704 959 704ZM303 628V616H307L315 624L311 628H303ZM295 536L299 532H307V544H303L295
536ZM343 532L339 528V524Q350 524 355 488L359 484H367L379 496Q379 532 343 532ZM907 500L911 496V492Q911 448 883 412Q837 260 807 212Q723 224 723 264L711 276H707L695 268H691L683 276L723 384L715 392V420Q715 480 735 480H739L803 464L819 480H827L867
468H879L887 476L879 488Q879 496 907 500ZM299 448L287 432V428Q287 415 347 400L355 424V428Q355 443 299 448ZM919 316V308H923V316H919ZM283 264V256Q290 240 311 240L331 268L319 280H311Q290 280 283 264ZM367 124Q367 113 387 104L399 108L447 100Q495 105
495 128L491 156Q543 161 543 176V196L531 208H471Q455 208 443 152Q367 148 367 124ZM571 188L567 184V176L595 148H607Q617 148 623 180L619 184V188L603 184L571 188ZM551 100L559 92H567V100L559 108L551 100Z" />
<glyph unicode="e" glyph-name="e" horiz-adv-x="841" d="M143 1872H171L179 1864Q179 1851 139 1792L135 1796V1864L143 1872ZM743 1872L751 1864V1652L743 1644H391L383 1636V1608L375 1584L383 1560V1088L391 1080H699L707 1072V860L699 852H635L627 844V636L615
624L611 628V844Q590 869 575 872Q575 892 567 892H563L555 884V880L583 856L579 852H391L383 844V228L391 220H743L751 212V8L743 0H631L615 12H591Q578 12 563 0H559L527 36H519Q493 36 463 0Q456 0 451 36H447L403 28Q384 44 371 44Q340 33 319 16H311L295 20Q272
15 255 0H147V8Q160 21 167 60V72Q135 104 135 128V232Q135 240 147 240L167 236L171 240V256Q171 268 143 268L135 280V320L139 360H147Q173 340 187 340L195 348Q195 356 179 356Q170 384 147 384Q135 384 135 392V632L139 676L135 680V684L139 708V740Q139 747
167 752V768L135 796V840L143 848L251 856L307 848L311 852V860Q295 877 291 896Q243 902 243 920Q243 961 199 980H171L143 976L135 988V1028Q135 1037 187 1056Q199 1071 199 1084Q199 1123 159 1148Q135 1181 135 1212Q135 1300 159 1300Q189 1300 207 1328V1332L195
1344L139 1340L135 1344V1580L139 1604L135 1624Q135 1691 199 1848Q207 1848 207 1868L211 1872H743ZM243 1720L219 1688L199 1696Q167 1693 167 1664V1648L179 1636H195Q219 1636 247 1684Q263 1684 263 1708Q263 1717 243 1720ZM275 1684Q283 1654 303 1644L311
1652V1668Q311 1690 295 1696H287L275 1684ZM263 1616L255 1604V1592Q255 1560 287 1560Q307 1566 307 1588Q282 1616 263 1616ZM183 1564V1516L207 1496H215Q243 1496 243 1524V1540Q243 1576 199 1576H195L183 1564ZM263 1480V1464L275 1452H287L295 1460V1464L275
1492L263 1480ZM291 1072L287 1068V1060Q290 1036 299 1036H343Q359 1044 359 1060Q346 1072 291 1072ZM283 972Q297 944 303 944H323L331 952Q316 955 303 984L299 988H295Q285 988 283 972ZM407 948V944L419 932H431L471 944Q486 930 511 928L515 940Q515 956
479 964V972L483 984L479 988H475Q459 988 407 948ZM147 964L199 952L211 936V932L207 928V924Q139 930 139 952V956L147 964ZM363 956V944H367L375 952L371 956H363ZM375 920V912H379V920H375ZM527 908V904L539 892L547 900V904L535 916L527 908ZM331 896L311
900L303 888Q335 860 335 840Q303 836 303 828V824Q306 798 331 768H335Q359 782 359 804L355 828L359 840Q347 843 347 872L363 900L355 908H347L331 896ZM375 872V860H379L387 868L383 872H375ZM203 756Q213 728 219 728H235Q243 728 251 752Q236 764 223 764H211L203
756ZM259 232L267 224L275 232L267 240L259 232Z" />
<glyph unicode="f" glyph-name="f" horiz-adv-x="887" d="M181 1872H781L789 1864V1652L781 1644H741Q733 1644 733 1656L729 1660H713L693 1644L661 1652L637 1644H429L421 1636V1356Q421 1346 385 1340V1336Q385 1301 421 1292V1048L429 1040H737L745 1032V820L737
812H429L421 804V412L405 396H385L389 368L377 360H373L321 412H317V420Q337 420 337 444L333 448H325L289 412Q317 396 317 380L309 356V348L325 332L329 336V340L321 348V356H325Q337 356 337 340L333 320Q360 320 369 280L381 276L405 284H409Q421 280 421 260V212Q401
191 373 176Q362 176 345 224L341 228V240L349 252L345 256V260L325 256H321L309 264H305V260Q361 173 361 160L325 132L329 128H333L409 188H413L421 180V140L409 124L421 112V8L413 0H181V12Q197 12 229 52L225 56H221L181 24L173 32V1864L181 1872ZM649 1676L653
1672H665V1684H657L649 1676ZM685 1672L693 1664H697L705 1672V1676L697 1684L685 1672ZM741 1680L737 1676V1672L741 1668H745L749 1672V1676L745 1680H741ZM225 1336V1328L237 1316H245V1328L237 1336H225ZM281 1276Q303 1212 333 1212Q353 1233 353 1244Q340
1320 325 1320Q316 1320 281 1276ZM201 628L197 624V620L209 608L217 616V624L201 628ZM233 496V472H241V496H233ZM237 452L233 448V424L253 420L261 428L237 452ZM365 420L373 412H381V420L373 428L365 420ZM285 392L281 388V384L289 376L293 380V384L285 392ZM241
368Q249 350 257 348L265 356L249 372L245 368H241ZM281 320Q265 305 265 252L269 248H273L313 296V304Q313 314 281 320ZM369 320L373 316V308H361V312L369 320ZM369 260V252H377V260H369ZM197 240L229 216H237Q244 216 253 240L249 244H245L221 240L213 248H205L197
240ZM281 216V208L289 200L297 208L289 216H281ZM393 156L389 152V148L397 140H401V148L393 156ZM237 64V60H241L313 112H317V124H313Q272 100 237 64Z" />
<glyph unicode="g" glyph-name="g" horiz-adv-x="1117" d="M540 1920H544Q812 1920 904 1696Q920 1651 932 1564L928 1560L932 1540V1480L928 1476V1472Q876 1472 876 1492V1496H872L864 1480V1476Q864 1466 892 1456L896 1460Q932 1456 932 1448V1312L924 1304H692L684
1312V1460Q684 1468 696 1468Q769 1468 800 1456Q836 1461 836 1472Q836 1484 792 1484L784 1476L764 1480L760 1476L736 1480L708 1476Q684 1485 684 1492V1520Q684 1696 540 1696H536Q438 1696 408 1596Q403 1573 388 1556L392 1532L384 1524H376Q344 1572 316
1572V1576L324 1588Q309 1592 284 1616H260Q231 1616 204 1572V1560L216 1544L208 1532V1528H212L236 1552H244L260 1524V1516Q260 1508 240 1508L236 1504V1500L244 1492H280Q297 1476 312 1476V1480L304 1492Q304 1505 368 1508L396 1476V860Q396 792 380 752Q396
752 396 696V400Q396 260 496 232L528 228H548Q638 228 672 320Q684 363 684 392V416L688 572L684 668L688 680L684 704V724Q684 761 708 788Q704 812 696 812H680Q656 806 656 768L652 764H548L540 772V972L548 980H924L932 972V252L912 208Q912 172 880 172L768
128H760L740 148H728Q694 128 676 128Q676 150 592 188H580L564 172V160Q564 134 632 96L652 100Q684 85 684 60V52Q623 0 516 0Q219 0 160 280Q148 332 148 400V760L156 768Q158 728 180 728Q201 728 224 760V768H216L180 744H172Q172 779 148 796V1476Q148 1484
176 1488L188 1476Q199 1488 220 1488V1496L208 1500L180 1496H156L148 1504V1532Q170 1550 180 1600V1604L168 1664Q202 1788 304 1860Q409 1920 540 1920ZM676 1664L680 1660H688L704 1676L692 1688Q685 1688 676 1664ZM340 1596Q343 1572 352 1572L360 1580V1584L348
1596H340ZM872 1532V1528L880 1504H884L892 1512V1524L884 1532H872ZM348 1492L352 1488H360L368 1496L364 1500H356L348 1492ZM224 884L240 868H248L256 876V888L244 900H240L224 884ZM240 796V784H248V796H240ZM232 780V772H236V780H232ZM708 520Q708 469 744
452H748Q768 472 768 500Q764 532 736 532L708 520ZM892 448V440L908 424H912L920 432V448L912 456H900L892 448ZM764 424L756 412L764 404L772 412V416L764 424ZM924 60L932 52V32L924 24H912L904 32Q914 58 924 60Z" />
<glyph unicode="h" glyph-name="h" horiz-adv-x="1047" d="M127 1883H359L367 1875V1107L375 1099H443L467 1083Q475 1083 475 1095L479 1099H527Q536 1099 539 1063L535 1059L483 1071L475 1063L519 1015H523L543 1031Q551 1031 551 1019Q551 1003 531 987L527
971L535 963L527 955L503 963H495L487 955L495 923Q451 900 451 879H439L443 899Q419 899 411 935Q401 935 391 975L419 991L435 987L447 999H455L471 987L475 999L471 1011L487 1027L483 1031L379 983L351 1023L347 1019V1015Q356 1015 367 979Q398 942 411 895Q379
891 379 883L387 875V871Q367 871 367 863V535L359 527L323 531L299 515L287 527L279 515V511Q299 463 311 463H331L355 483H363L367 395V267L347 243Q367 224 367 183V147L355 135Q295 151 295 171Q275 187 275 211L279 215V219Q251 277 235 283H231V175Q236 134
267 95V83L263 63Q296 27 335 27L359 35L363 31V19L355 11H239L231 3V-445L223 -453L219 -449V3L211 11H159Q151 11 151 31L119 47V103L127 111H135L147 75H159L163 79H167L171 75V71Q189 79 191 87L187 91V95Q198 135 207 135Q207 174 155 191H151L123 171L119
175V207Q119 218 139 247Q146 279 155 279H167Q180 265 199 207Q207 207 207 195L211 191H219V259L223 343Q223 359 179 363Q179 388 139 403L127 391L119 399V471L123 491L119 515V563L123 579L119 595V611L123 635L119 675V1875L127 1883ZM695 1883H927L935 1875V19L927
11H755Q743 14 743 43V51H755V55L743 67H739Q731 67 723 39L727 15L723 11H699Q687 15 687 35V223H695Q708 91 723 91H727L731 95H735L731 107L735 111V115Q719 138 695 291L699 295V299L691 355L699 363Q687 377 687 411V427L695 435Q783 287 791 255L827 227L831
231Q831 241 755 355L751 367L767 379V403Q780 403 795 391H799V395Q790 419 759 419Q746 409 723 407L687 487L695 495L719 487Q721 498 759 519V523L747 543L751 547H755L783 543V551L747 563L719 547L703 539H695L687 547Q687 566 715 599H719L723 595H727L723
591V587L731 579H735L743 587V595L731 611L755 651Q755 688 719 719Q699 719 687 739V751Q687 756 755 771Q763 779 767 819Q739 819 739 835Q740 844 819 871L823 875L827 871V867L819 855Q827 837 835 835Q843 835 843 847Q830 891 823 891L811 879Q795 879 759
907L747 903V895H763V883H755Q742 883 727 895H723Q707 885 707 867H699V887L683 879L671 883L659 871H607L599 879L611 903L603 923L615 931L619 927H623L647 931L663 911Q670 911 675 939H687V947L643 943L635 951L579 939L575 943V951L623 991H631Q646 975 663
975L667 979V987Q651 1001 651 1023L647 1027H631Q631 1003 595 1003Q595 1015 563 1015L547 1083V1091L555 1099H679Q687 1099 687 1115L691 1119H695L711 1115L715 1119V1135Q715 1144 687 1151V1155L695 1187L687 1199V1875L695 1883ZM207 1267L203 1263V1259L219
1239L223 1243V1247L207 1267ZM227 1231L223 1227V1223L231 1215H235V1223L227 1231ZM243 1203Q243 1167 283 1131L287 1135V1139L247 1203H243ZM711 1195L723 1187L727 1191V1195L719 1203L711 1195ZM711 1163L723 1147H727L735 1155V1159L727 1167H719L715 1163H711ZM291
1119Q291 1096 339 1035H343V1043L295 1119H291ZM731 1115V1107H743V1115H731ZM647 1059L651 1055H655Q663 1055 663 1067Q683 1072 683 1079L679 1083H659Q651 1083 647 1059ZM575 1067L583 1059H587L603 1075L591 1079Q575 1073 575 1067ZM423 1051L431 1043L439
1051V1059H431L423 1051ZM675 1027L691 1007Q707 1035 719 1035L723 1039V1043Q723 1051 711 1051Q676 1036 675 1027ZM599 1039V1035L607 1027L615 1035L611 1039H599ZM571 1003L575 999V995L571 991H567L563 995V999L567 1003H571ZM695 987L691 983V975Q703 962
715 923H719Q741 923 747 939V951Q709 987 695 987ZM467 971L463 967V959H475V963L467 971ZM131 935V911Q138 895 159 895H171Q199 915 199 959L175 967Q154 967 131 935ZM351 951V947H359L367 955L363 959H359L351 951ZM787 947L795 939Q815 944 815 951L807 959Q787
954 787 947ZM331 943L327 939V935L331 931H335L339 935V939L335 943H331ZM859 935L851 919V911H855Q867 919 887 919V931L859 935ZM283 899L287 895H291L311 915V919H307L283 899ZM795 915V911L803 903L811 911L807 915H795ZM215 863L219 859V855Q259 872 271
891V895H263Q215 870 215 863ZM647 895V883H651L659 891L655 895H647ZM787 815L795 807L803 815L795 823L787 815ZM251 795V783L259 791L255 795H251ZM279 759V751H287V759H279ZM839 579L835 575V567H839L847 575L843 579H839ZM795 555V551H803L819 559V567Q795
565 795 555ZM755 499L759 495V491L755 467L759 463H763L767 467L775 483Q795 483 795 491V495Q791 507 771 507H763L755 499ZM895 479V471Q899 459 919 459L927 467V471L919 479L915 475H911L895 479ZM815 403V391H839V403H815ZM855 403V391H859L867 399L863 403H855ZM291
347Q296 295 323 295L339 307V331L343 371L339 375H323Q291 371 291 347ZM855 319V311H859V319H855ZM875 291V287Q881 271 895 263L907 275L883 291H875ZM871 215L851 219H847Q831 213 831 191V187L835 183L863 151L871 159L851 207Q899 210 899 223V235H891L871
215ZM131 207V195H139V207H131ZM119 151H131V143H119V151ZM871 147V139H883V147H871ZM887 135L883 131V127H895L887 135ZM767 47L771 43H783L795 55V67H791L767 47ZM267 31L263 27V23L267 19H271L275 23V27L271 31H267Z" />
<glyph unicode="i" glyph-name="i" horiz-adv-x="534" d="M170 1872H402L410 1864V1444Q410 1436 386 1436L374 1420V1416L382 1408L402 1412L410 1400V1172L406 1156L410 1140V1088L406 1068L410 1044V1004Q410 997 382 992V988Q382 980 402 980Q410 962 410
928V920L406 896L410 856V592L406 588V584L386 588L362 576H358L350 584V592L358 600L378 596L386 608V612Q382 672 366 672H362Q330 651 330 612L334 588V576Q309 540 294 540V532L306 528L342 544L370 540L374 544V548L370 564H374Q382 564 382 536Q408 526 410
516V320L402 308L410 292V284H406L410 256V212L402 204L398 208H394V200Q410 198 410 188L402 180L410 148L406 144L386 148H382L322 132Q311 152 286 152Q286 166 242 172Q242 188 206 188Q198 196 198 220Q176 220 174 260L170 264V272Q171 292 178 292L174 296V300L178
304V308L182 304H190Q187 336 182 336L170 332L162 356V476Q162 506 174 508H178Q178 488 186 488L242 504L258 500L262 504Q259 532 234 532H198Q162 552 162 572V592L174 608V612L170 628L174 632V636L170 660L178 668L170 712Q194 712 194 720V724Q162 729 162
756Q170 756 174 780Q166 780 166 800H162L170 840L162 880Q194 892 222 892L238 880H242L250 888Q250 895 218 908Q210 924 198 924L170 920L162 936L166 960L162 1016V1076L170 1088V1092L162 1104V1172Q162 1180 178 1180L182 1184V1188Q162 1188 162 1224H166L186
1228L202 1224H206V1228Q206 1236 182 1236L170 1252V1256L174 1260V1264L162 1276V1392L174 1404H178L202 1400Q222 1405 222 1412V1416Q222 1429 162 1436V1864L170 1872ZM250 1428L242 1416Q242 1405 262 1396L318 1400H330Q339 1400 342 1420L338 1424H330L290
1420L250 1428ZM370 1112L362 1100L370 1092H374L378 1108L374 1112H370ZM342 1012V1000L350 1008L346 1012H342ZM230 868Q234 840 242 840Q250 840 258 868L254 872H238L234 868H230ZM218 828V824L226 816H230L238 824V828L230 836H226L218 828ZM214 792V784H222V792H214ZM230
776L214 756V748L218 728L202 712V708Q202 700 222 700V692H246L254 684L250 680V676L262 668L266 672H270L266 676V680L282 736L278 740H274L258 736L254 740V744L266 748V752Q266 762 230 776ZM178 760V748H186V760H178ZM254 720H262V716H254V720ZM290 584L294
580H306V592H298L290 584ZM294 508L290 504V500L294 496H298L302 500V504L298 508H294ZM330 508L326 504V496Q347 475 350 452L354 448H362Q374 452 374 472Q367 472 362 492Q349 492 330 508ZM294 412L282 396V392Q298 368 342 368L350 380V396Q350 408 294 412ZM182
268H190V276L182 268ZM190 248V244H198V248H190ZM174 192H182Q190 192 190 180L186 168L190 164L186 160H182L174 184V192ZM282 96Q304 89 318 72L330 80L350 68L406 76L410 72V8L402 0H190L174 12L166 4L162 8V40H170Q170 16 178 16Q182 40 198 56V64Q182 64 182
72V84L186 88V92L206 88L210 92H214L222 76Q241 92 282 96Z" />
<glyph unicode="j" glyph-name="j" horiz-adv-x="953" d="M583 1896H667L675 1888V1872L639 1796Q639 1765 623 1732Q623 1693 587 1652H583L575 1660V1888L583 1896ZM715 1896H815L823 1888V1792L819 1788V1784L791 1788H779Q759 1777 759 1764L763 1732Q727
1725 727 1700L735 1692H747L763 1708L783 1704H787L815 1740L823 1732V1580H815Q807 1581 775 1656L759 1664H743L735 1656L743 1608L735 1584V1544L727 1532Q727 1492 763 1492L823 1504V1500L815 1488V1476L819 1456L815 1452L811 1456H807L799 1448V1444L807
1436L819 1440L823 1436V1416H815Q797 1432 763 1432L751 1428L743 1444L739 1440H735Q723 1456 711 1456V1464Q727 1464 727 1472L703 1492H699Q688 1492 687 1472H683L675 1480L679 1492L675 1496Q655 1491 655 1484Q655 1460 699 1452V1436Q695 1424 675 1424H663Q654
1424 651 1456H639L631 1432Q667 1413 667 1388L659 1380H655Q637 1394 615 1456Q575 1470 575 1476L583 1528L579 1540L591 1548H595L615 1536Q629 1536 643 1576L647 1580H683L699 1568L707 1576V1580Q683 1612 635 1612Q619 1623 619 1632Q637 1700 659 1700L679
1696L687 1708L659 1744Q665 1788 679 1788L699 1780V1792Q679 1792 679 1800Q679 1834 715 1896ZM755 1416Q810 1396 811 1380V1376Q811 1368 799 1368Q747 1379 747 1408L755 1416ZM703 1308Q743 1306 743 1296V1232L751 1224L755 1228L751 1232V1244L755 1260L751
1276Q755 1300 771 1300Q823 1297 823 1284V404Q823 146 635 44Q544 0 431 0H423Q291 0 211 56V64Q223 64 223 72V76Q223 88 183 88L171 100L151 96L147 100V112L151 148L147 160Q154 160 167 200L163 224Q177 224 183 276L207 300L227 280H243Q259 280 259 316Q268
316 275 352H283Q292 352 295 324Q323 224 443 224L495 212L499 224L495 236Q579 274 579 444L575 492L579 496L575 516V684L579 700L575 728V1144L579 1148V1152L595 1148L635 1152L655 1148Q691 1148 691 1188L703 1208L723 1204H735L739 1120H743L747 1124H751Q744
1248 699 1248L687 1280Q694 1280 699 1308H703ZM767 1212L763 1208Q763 1168 795 1168L811 1188V1192Q793 1212 767 1212ZM731 1020V1016H739V1020H731ZM723 916Q735 916 743 808L739 780Q751 636 759 636L763 648L759 688L763 732L755 740L759 744V748L751 780V784L755
800L751 812L763 824L751 832L755 852V868Q743 916 731 916H723ZM715 676L723 668L731 676L723 684L715 676ZM755 632L751 628L755 616L751 532V484H759L763 500L767 496H775V508L763 556L767 568L763 592Q771 592 771 604Q766 632 755 632ZM191 616Q238 616 263
568V564Q247 549 247 532L243 528H235V552Q235 560 219 560Q219 583 195 592L175 596V604Q175 614 191 616ZM747 416L759 420L755 436L767 452L771 436H779L787 460L783 472L791 480V484Q753 484 747 416ZM215 484H219L223 480H227Q227 452 203 412Q188 348 167
348V344L171 312Q171 291 131 208Q87 216 87 228L91 240Q63 254 63 260Q91 263 91 284Q99 284 99 304L103 308H107Q117 300 147 296L159 340Q88 375 83 388V392Q92 412 115 424Q124 476 147 476L151 480Q174 464 195 460Q215 460 215 484ZM263 464L287 432V400L279
392L275 396H271L255 380H247L235 392V400Q255 419 255 460L259 464H263ZM103 456H107L115 448Q109 432 103 432L95 440V448L103 456ZM591 432V424Q595 412 615 412L619 416V420L607 432H591ZM775 432V424H779V432H775ZM667 376Q667 359 711 344L715 348V356L691
372Q691 388 683 388H675Q667 388 667 376ZM659 268V256L683 236L699 256Q689 276 667 276L659 268ZM735 232L731 208H739L743 232H735ZM759 232V196H767L771 232H759ZM675 204L683 196L691 204V212H683L675 204ZM187 192Q220 168 243 168L251 180V192L235 208Q187
203 187 192ZM271 184L263 172L279 156H295L307 168Q307 180 271 184ZM335 172V160Q335 145 395 140L415 124Q431 130 431 136V148Q425 164 403 164L399 160H395L363 184H347L335 172ZM115 172H123V168H115V172ZM567 148V140L583 124H591Q591 146 575 156L567 148ZM459
140L451 128V120L467 96L495 100Q543 88 571 68H603L611 76V84Q610 98 539 116Q537 124 519 132L495 128L459 140ZM239 68V60L247 48Q291 52 291 60V64Q285 80 263 80L239 68ZM347 28V20H351V28H347Z" />
<glyph unicode="k" glyph-name="k" horiz-adv-x="1036" d="M165 1872H397L405 1864V1280L401 1256L405 1236Q405 1228 393 1228L389 1224V1216Q389 1208 401 1208L405 1204V1092H413Q416 1200 641 1684Q723 1871 729 1872H961L969 1864L661 1172L989 4L985 0H749Q733
15 673 276L533 816L501 928H497Q481 913 417 756Q408 756 401 684L405 664V620L401 608L405 588V16Q405 10 377 0L357 4L273 0H165L157 8V1096L161 1112L157 1128V1864L165 1872ZM329 1368L325 1348V1340H333L337 1368H329ZM329 1308V1300H337V1308H329ZM241 1256L301
1212L309 1220L301 1232V1236Q317 1236 317 1244L293 1264H289Q277 1264 277 1240H273Q265 1240 265 1252L269 1264L265 1268Q241 1263 241 1256ZM321 1200V1196Q321 1152 333 1152H337V1180L333 1196L337 1212H333L321 1200ZM329 1136L333 1132V1004L341 996L345
1000L341 1020L345 1032L341 1036V1040L345 1064L341 1124V1128L333 1136H329ZM325 976L329 892H333L337 896H341L333 976H325ZM321 792V788H329V792H321ZM325 684V676L333 580V564L329 544H333Q340 544 345 572L341 584L349 592V596L341 604L345 624V640Q335 684
325 684ZM641 660L645 656H657V660L649 668L641 660ZM333 536V520Q334 492 341 492L337 480L341 416L349 408L353 412V432L349 456L353 476L349 480V484L353 500L345 512L349 516V520Q343 536 337 536H333ZM345 404L341 400L345 388L341 292V272L365 268V280L353
328L357 340L353 364L361 372Q361 394 345 404ZM373 256L381 248V256H373ZM361 248V208H369L377 232L365 248H361ZM345 232L337 188Q344 188 353 228L349 232H345Z" />
<glyph unicode="l" glyph-name="l" horiz-adv-x="809" d="M189 1872H421L429 1864V856L425 840L429 824V636Q429 596 409 584V576L417 540Q408 513 389 500H377L317 568Q289 604 269 648L265 652H249V632L237 616V612L249 572V568L213 524Q213 472 257 448L261
452V468L241 504Q245 528 253 528H257Q264 528 281 484Q281 460 261 428V420Q261 408 309 408Q325 391 325 376L313 364V360L321 352L337 364V408L349 420L361 408L337 336Q337 315 357 304L417 320H421L429 312V228L437 220H525L537 212H541L553 220H569L577 212Q559
185 489 160L313 64Q273 129 273 144Q285 147 285 176Q257 186 257 208V232L289 264L273 280L233 268Q205 268 197 316H181V344Q181 351 209 360L217 388Q217 398 181 428V564L189 596L181 604V652Q207 652 229 624Q237 624 237 636L233 648L249 676L253 680H257L277
664H285Q300 670 317 720L305 728H293Q267 728 221 672L185 668L181 672V1864L189 1872ZM201 708V700H209V708H201ZM373 656Q382 620 393 620L413 644V652L397 668Q373 664 373 656ZM317 260V256Q320 244 349 244Q361 244 361 260L349 276Q317 269 317 260ZM181
272H185Q213 244 213 228L229 196L225 180Q245 153 289 48Q234 0 213 0H189L181 8V272ZM665 220H669V212H665V220ZM645 208H653V188L645 180L637 188V200L645 208ZM585 172L589 168V164L577 152V148L585 140L633 160H641L649 152V124Q680 24 733 24L737 4L733 0H377L357
16H345Q345 0 337 0H293L285 8L337 44Q337 55 381 64Q381 78 421 84Q511 142 549 148Q563 172 585 172ZM701 152H713V144H701V152Z" />
<glyph unicode="m" glyph-name="m" horiz-adv-x="1471" d="M141 1871H505Q519 1871 565 1543L601 1335L597 1331L577 1335H565L549 1319L561 1303V1299L553 1287V1279L561 1255L557 1231L561 1227H565Q565 1254 597 1279Q597 1299 605 1299L629 1171Q581 1153
581 1143L593 1131H629Q639 1131 661 971Q636 971 633 931L617 919L629 879Q611 879 597 815Q552 759 517 739H509Q493 739 465 963L445 1071L457 1083Q437 1083 409 1311L361 1603H353Q369 1372 369 1155V1075H361Q361 1087 345 1095L337 1087V1079L349 1047L345
1035L369 1015V971L353 947L361 927Q353 927 353 915L369 859V663Q278 597 217 591Q193 596 193 603V611Q193 617 225 631L245 711V715Q239 759 189 759Q168 759 137 723H133V779L141 791V799L133 811V895L149 907L153 911V919Q153 927 137 927L133 931V1335Q133
1368 149 1411V1435L133 1499V1571Q151 1606 169 1607V1611L153 1651L165 1663V1675L161 1691L165 1707L149 1723L137 1719V1727L157 1751V1755L137 1775L149 1791V1803Q149 1811 137 1811L133 1815V1863L141 1871ZM1345 1871L1353 1863V1231L1333 1207Q1333 1199
1349 1199L1353 1195V7L1345 -1H1257L1249 -9V-461L1241 -469L1237 -465L1233 -205V-9L1225 -1H1173L1165 -9V-301H1153V-9Q1153 -2 1117 3V1043Q1133 1061 1133 1087Q1117 1093 1117 1099V1143Q1117 1367 1133 1603H1125L1037 1063Q1027 1063 1013 1019Q986 1019
957 987Q936 987 901 959Q863 923 841 923L821 919L817 923V927Q969 1855 977 1871H1345ZM1125 1255V1251L1173 1215L1181 1187L1173 1171L1177 1167V1163L1169 1147L1177 1115H1181L1193 1123L1213 1111L1233 1115L1253 1107Q1269 1122 1269 1139L1273 1143H1277L1289
1139L1333 1171V1183L1321 1195Q1256 1180 1241 1155Q1222 1155 1201 1135H1197Q1189 1135 1189 1147L1197 1171V1175L1189 1199L1197 1227Q1190 1254 1169 1263H1133L1125 1255ZM973 1243V1235H985V1243H973ZM309 1147V1131Q309 1125 337 1111L345 1119Q345 1143
321 1159L309 1147ZM177 1059V1055L185 1047H197L209 1059V1075L201 1083H189Q177 1079 177 1059ZM517 995L525 987L533 995V1003H525L517 995ZM1017 995L1025 987L865 -1H625Q614 -1 549 447Q525 557 525 599L573 711Q580 711 609 763L673 799L685 803Q695 803
725 563L737 351H749V355Q749 558 809 871Q871 915 885 915Q985 965 1009 987L1017 995ZM321 919Q309 904 269 887V879L281 867H285L301 895Q327 905 329 915L325 919H321ZM149 871Q157 858 157 819L189 811Q199 832 213 835L229 827Q257 835 257 859V867Q257 875
245 875L213 863Q205 863 193 911H185Q153 904 153 887L149 871ZM669 883Q681 881 681 851V843Q681 833 641 823L637 827Q637 867 661 867Q661 883 669 883ZM801 775V767L813 755Q835 755 841 771V775L829 787H825Q801 785 801 775ZM529 731H541L553 719V715Q521
682 521 667H509L505 715L529 731ZM141 655L161 631V627L153 619Q133 624 133 631V647L141 655ZM361 615L369 607V359L353 347L349 343V315Q349 290 241 83Q227 83 209 67H197Q189 67 189 79L205 111Q176 200 157 203Q133 203 133 211V423L141 431Q141 407 173
391H181L197 399L237 383Q261 383 261 415Q247 491 233 491H217Q210 491 189 443L173 427Q160 427 149 491V503L157 515V519L133 543V547L137 551V555Q157 555 185 527Q199 543 221 543Q221 549 265 559Q298 586 357 611L361 615ZM593 555L617 547Q629 562 629
575L621 583H609Q593 577 593 555ZM365 215H369V7L361 -1H245L237 7V19Q269 53 329 179Q338 182 365 215ZM141 75H149Q161 71 161 51Q155 51 145 19H141L133 27V67L141 75Z" />
<glyph unicode="n" glyph-name="n" horiz-adv-x="1075" d="M133 1872H397Q406 1872 457 1660L777 476H785Q757 716 757 944V1864L765 1872H977L985 1864V8L977 0H713Q701 0 617 340L329 1400H321Q353 1192 353 980V8L345 0H133L125 8V1864L133 1872ZM821 704Q821
688 845 688Q851 672 857 672L861 676V692L833 716H829Q821 716 821 704Z" />
<glyph unicode="o" glyph-name="o" horiz-adv-x="993" d="M481 1920H485Q786 1920 869 1652Q885 1585 885 1520V800L877 792H873L861 800L841 788H833Q821 820 821 852L813 860L821 868Q829 868 837 844H845Q853 844 861 872L845 880Q797 876 797 868L805 860V852Q805
844 765 812V796H769Q777 796 777 808H785V796L765 776L769 752L761 744L765 732Q765 704 741 704Q741 692 733 692H729V696L733 724L709 764L717 772L733 768L741 784Q731 810 721 812Q705 812 689 792Q653 778 653 768L657 756L645 748L637 756V760L649 776L637
792V1012Q637 1048 665 1048H673Q685 1048 709 1032Q734 1032 745 1052Q745 1064 697 1076Q674 1093 641 1100L637 1208V1396Q637 1439 665 1464V1468Q637 1492 637 1544Q611 1696 489 1696H477Q381 1696 341 1596Q329 1553 329 1524V708Q329 676 305 676Q293 676
293 668Q309 668 309 648L321 644V632H301L289 620V592H301L317 604H321L329 596V468L321 456V452L329 440V396Q329 280 425 232L477 224H485Q590 224 629 332Q637 412 645 412Q656 368 665 368L673 376L641 444L645 448V452L637 484V560Q642 576 673 576L689 564Q689
573 721 584Q736 616 773 616L793 608L805 612L817 596L837 600Q837 592 849 592L881 600L885 588L881 572L885 532V400Q878 236 845 236L833 224V208L841 196Q818 145 793 128H781L769 136H765Q753 132 753 112L761 100V92Q733 64 717 64Q715 72 697 80Q673 71
673 64L681 40Q596 0 485 0H481Q207 0 113 224L105 244L109 260V264Q81 287 81 400V1520Q81 1821 349 1904Q415 1920 481 1920ZM829 1684V1664H837Q846 1664 849 1684L837 1692L829 1684ZM809 1648V1636L817 1628L821 1632V1656H817L809 1648ZM789 1616L785 1588L789
1584H793Q801 1584 801 1596L797 1616H789ZM681 1512V1500L689 1492Q717 1514 717 1532L709 1540H705Q698 1540 681 1512ZM757 928L781 900L805 924L801 944L817 972H801Q777 972 757 928ZM729 876L725 856L733 848L741 856V876H729ZM765 860V848H769L781 860L777
864L765 860ZM857 824V816L865 808L873 820V824L865 832L857 824ZM645 804V796H653L661 804L653 812L645 804ZM769 696H773Q781 696 781 672H789V680H797L805 656Q805 645 757 632H729V636Q729 655 769 696ZM177 660L193 644H201Q213 644 213 660Q209 676 197 676Q179
668 177 660ZM781 664V660H789V664H781ZM277 652L285 644L293 656L289 660H285L277 652ZM865 664Q885 659 885 652V628Q885 620 853 616Q837 622 837 628L865 664ZM801 636H809L817 628L797 620L793 624V628L801 636ZM645 624Q653 624 653 612L657 608H661L677
620L685 608V604Q685 596 641 584L637 588V616L645 624ZM813 588V576H817L825 584L821 588H813ZM769 564L781 556L801 576L797 580H785L769 564ZM737 552V544H741V552H737ZM685 544L681 512L685 508H689L697 516V544H685ZM685 496L673 432H681Q689 432 693 472L689
488L693 492L689 496H685ZM777 464V460H785V464H777ZM297 448V436H301L309 444V448H297ZM237 420V416L253 424L265 420Q265 428 281 428L285 432V440H281Q237 428 237 420ZM781 428V416H789V428H781ZM805 428L801 416L805 412H809L813 416V428H805ZM757 420V412H769V420H757ZM205
404V400Q225 405 225 412L221 416H217L205 404ZM745 404L741 400V392H753V396L745 404ZM673 400V396L681 388L685 392V400H673ZM113 296V292L121 284L149 320V332L141 340Q113 326 113 296Z" />
<glyph unicode="p" glyph-name="p" horiz-adv-x="1028" d="M185 1872H281Q288 1872 293 1844H301L309 1852L305 1868L309 1872H573Q969 1872 969 1456V1280L961 1268L969 1256V1144Q969 728 561 728H433L425 720V544L417 536L365 540L361 536H357L293 548L281
544L249 560Q249 573 229 600V704L225 784L277 804L293 800L309 804V812Q293 812 293 820L325 848H333V832H337L349 844L345 848V852L349 856H353Q353 848 365 848Q472 876 513 912L717 996Q773 1012 777 1028V1036H753Q706 1000 685 1000V1008Q721 1059 721 1124V1476Q721
1590 629 1636L581 1644H533Q493 1644 453 1656Q453 1644 429 1644L425 1632L421 1588L425 1512V1224L421 1184L425 1148V1000L417 988V984L433 956H565V952Q520 916 485 916Q485 904 413 880Q413 887 389 892L393 920V928Q389 940 369 940H365L349 928L325 932L321
928V924Q338 914 345 896L333 880Q307 896 293 896H289L269 892L265 896V900L269 912H265L249 908L221 920L185 900H177V1316L189 1332L177 1348V1480L181 1496L177 1512V1636L181 1648L177 1668V1800L181 1836L177 1864L185 1872ZM341 1788V1780L349 1772L357
1792L353 1796H349L341 1788ZM385 1736V1728H401V1736H385ZM229 1720L245 1700V1696L241 1680Q247 1664 253 1664L261 1672V1720L253 1728H237L229 1720ZM289 1708V1700H301V1708H289ZM217 1636L221 1632H225L237 1636L241 1612H249L273 1640L285 1632L293 1640L285
1648V1660Q285 1668 297 1668L301 1672V1680L293 1688H285Q278 1688 273 1664Q223 1648 217 1636ZM309 1668L305 1640Q305 1607 365 1600Q381 1606 381 1612Q381 1620 369 1620L365 1624V1632L369 1636V1640Q321 1654 321 1668H309ZM813 1600L809 1596V1584L821
1572L837 1592L813 1600ZM761 1480V1460Q761 1444 825 1440Q827 1431 857 1416Q893 1434 893 1444Q886 1472 857 1472Q857 1520 813 1520Q791 1504 765 1500L761 1480ZM933 1464V1444L941 1436H945Q957 1440 957 1460L945 1472H941L933 1464ZM209 1316L205 1312V1308L221
1296L225 1300V1304L209 1316ZM353 1256Q353 1249 385 1236L397 1248L373 1272L353 1256ZM313 1264V1256H325V1264H313ZM789 1108V1100L801 1084V1080L797 1052L833 1040Q833 1046 861 1060V1072Q843 1072 825 1060H809V1100L801 1108H789ZM885 1088L889 1084H893V1096L885
1088ZM365 992V972L373 964Q405 968 405 976Q405 983 385 988Q385 1000 377 1000H373L365 992ZM281 928V916L301 912V920L293 928H281ZM633 924V912H641V924H633ZM213 840H221V828L205 820L201 824L213 840ZM177 820H189V812H177V820ZM205 800L213 792L185 768L177
776V784L185 792L189 788H193L205 800ZM209 772L217 764V760L209 748L213 728Q189 719 189 712L193 688L185 680L177 688V744Q177 751 201 756Q201 772 209 772ZM341 752L329 732L341 728Q357 734 357 740V744L349 752H341ZM209 696H221V644Q181 647 181 656Q209
672 209 696ZM209 628H217V580L193 560H185L177 568V608L209 628ZM181 552Q217 549 217 520L213 516L217 488V460L213 444L217 440V436L209 392L213 388V384L205 280L217 268L213 252L217 188V168L209 156V152L217 140V96L213 64L217 36L213 0H185L177 8V544L181
548V552ZM261 540Q425 523 425 508V392Q425 371 413 368H409L397 376H389L381 368Q381 345 421 324L425 300L421 248L425 156V28L385 0H245L237 8V32L241 44L237 60L241 228Q245 244 257 244V252Q245 252 229 296L237 308L229 340H233L245 336V356Q263 385 289
388V404L281 412H277L273 408H269L265 412V416L269 428L265 424H261Q252 424 245 452Q233 452 233 464L237 484L229 492V508H237Q245 508 245 496L241 484H249L261 496V500Q249 500 249 508V520L261 540ZM293 500V488H301V500H293ZM229 436H237V432H229V436ZM341
112V100Q350 60 377 60Q389 73 389 128V132L381 140H377Q341 140 341 112Z" />
<glyph unicode="q" glyph-name="q" horiz-adv-x="1051" d="M573 1914Q702 1914 785 1858Q792 1762 821 1762L841 1782V1786L833 1798L849 1814Q937 1725 937 1670L905 1654Q865 1664 849 1694L817 1710Q812 1682 793 1682Q793 1662 765 1654V1650Q765 1637 781
1618V1614L769 1594L773 1566L769 1550L793 1542Q804 1542 817 1610L813 1634Q823 1682 829 1682Q849 1657 889 1638Q889 1629 921 1622L945 1634Q961 1634 965 1514V902Q933 882 933 862V858Q933 848 965 842V726Q941 705 937 670Q914 637 893 578L889 574H885L781
606H777L769 598V594Q777 578 789 578L817 582Q817 564 889 546L909 538L925 542Q964 521 965 514V402Q965 231 889 150L877 158H849Q829 140 829 126L833 122H837L857 126L861 122V114L813 66Q813 52 965 -182Q985 -208 985 -222V-226H745Q733 -218 597 -6H561Q260
-6 177 262Q161 328 161 394V782L169 790H189L205 778H209L241 786Q251 760 261 758H281L293 770Q293 777 177 814L173 818Q161 818 161 826V1514Q161 1787 389 1886Q471 1914 573 1914ZM489 1870V1866H497V1870H489ZM409 1518V742L401 734H397Q350 766 321 766H313L305
758Q341 730 409 698V390Q409 274 505 226L557 218H569Q665 218 705 318Q717 361 717 390V590L725 598L745 594L753 614Q717 632 717 638V1074L745 1098V1102Q745 1109 717 1114V1518Q717 1635 621 1682L565 1690H557Q461 1690 421 1590Q409 1547 409 1518ZM777
1510V1506Q781 1494 801 1494L805 1498V1522L797 1530L777 1510ZM785 1470V1458L793 1450H801Q817 1457 817 1478L813 1482H797L785 1470ZM813 894L837 874Q897 883 897 890V902Q897 911 865 922L853 986L849 990Q849 998 837 998Q821 998 821 954Q816 954 813
894ZM809 822L805 818V814L813 806L817 810V814L809 822ZM857 766Q857 756 889 750L893 754H897L893 766L897 798L893 802H885Q857 787 857 766ZM949 646H957L965 638V562L957 554Q921 564 921 570V578Q939 646 949 646ZM881 462L885 458H893Q902 458 913 494L909
514H905Q881 496 881 462ZM865 426Q865 405 881 398Q891 398 893 434L881 442L865 426ZM837 298V286L845 278H853Q867 278 881 362L869 370Q854 370 849 314L837 298ZM777 146V114L785 106H793L837 190L841 194L837 226L845 250V254L837 262H833Q820 248 777 146Z"
/>
<glyph unicode="r" glyph-name="r" horiz-adv-x="1003" d="M148 1872H516Q924 1872 924 1468V1320L912 1304L924 1288V1220L920 1196L924 1184L900 1080H888L892 1116Q885 1180 872 1180L864 1168V1164L872 1152V1104Q872 1092 856 1092V1088Q856 1080 868 1080L872
1076V1052L864 1044Q833 1076 816 1076Q802 1069 796 1052L808 1032V1028L804 1024V1020L808 1016H812L836 1020L848 1008L808 968H800L796 1000L800 1004L796 1008H792L780 1004Q774 1020 768 1020L748 1004H740L732 1012Q736 1068 748 1068L776 1064L780 1068V1072L776
1084L784 1092V1100Q784 1108 744 1108L732 1116L728 1112L732 1108V1092Q725 1076 684 1060L672 1020L680 996Q674 996 660 968V964Q684 944 684 936L680 916L684 896L680 880L688 872Q688 864 676 864Q587 901 572 916Q572 933 596 952Q596 970 612 976L624 972L628
976V980Q628 988 616 988L612 992V996L616 1016H612L552 912L508 928V916L652 864Q652 856 672 856Q673 836 684 836L712 840Q748 832 748 824V820L724 788V784L732 772V764L724 752V744Q742 744 748 728V724L740 716H724L696 740L708 756L700 764L680 748H676Q658
748 616 796Q577 824 532 824H396L388 816V628L312 608L276 592Q271 564 248 564Q228 564 220 524V516L236 484Q184 437 184 416L188 412H200Q200 439 252 464Q252 470 280 484H292Q314 484 320 468V456L308 440Q328 418 328 404L316 392V384L328 368L324 364L256
384H248V372Q265 340 300 340L364 312V308L360 292Q388 275 388 268V8L380 0H148L140 8V348Q154 368 184 368H188Q203 356 216 356H224V368Q197 368 176 396L148 392L140 404V552Q202 621 212 684L208 704L212 732Q212 771 160 780V784L164 804L140 820V948L144
952Q184 965 184 972Q184 985 140 1012V1212L156 1232V1236H140V1864L148 1872ZM388 1636V1236L384 1192L388 1160L384 1140L388 1096V1040L396 1032H532L576 1036L580 1032H584L600 1036L648 1028L652 1032V1056L636 1076Q650 1108 672 1108L676 1128L668 1136Q668
1173 692 1188L676 1200V1292L684 1304L676 1340V1464Q676 1590 588 1636L536 1644H396L388 1636ZM844 1616V1608H856V1616H844ZM852 1596V1592H860V1596H852ZM852 1572V1532L844 1524L812 1540L796 1528V1516H800L824 1524H828L844 1512H852L872 1532V1536L868
1552L872 1556V1560Q867 1580 860 1580L852 1572ZM852 1476L856 1472L852 1452V1440L864 1400L860 1396V1392L868 1356L864 1332L868 1308L864 1304L868 1280L864 1244L868 1240V1236L864 1232L868 1212V1188H880L876 1200L880 1216L876 1412L872 1416V1420L880
1444Q880 1471 860 1484L852 1476ZM704 1184L716 1144H728V1164L744 1180L776 1152Q816 1160 816 1168V1176L792 1204L780 1200V1172H772L760 1184V1188Q760 1198 776 1200V1208H772Q745 1188 704 1184ZM692 1096L696 1092H700L708 1104H700L692 1096ZM776 1044V1036H784L792
1044L784 1052L776 1044ZM696 1052H704V1048L692 1036L688 1040V1044L696 1052ZM192 1040V1032L200 1040H192ZM236 1028L232 1024V1020L264 1008V1020L236 1028ZM280 1012L276 1008V1004L280 1000H284L288 1004V1008L284 1012H280ZM544 1000L552 992L564 1008L560
1012H556L544 1000ZM308 1004L304 1000V996Q330 974 380 964L384 968V972L320 1000L308 1004ZM684 996L692 988H684V996ZM396 968V964Q406 946 480 932L488 924H492V936L396 968ZM632 960V956L640 948L648 956L644 960H632ZM156 848L160 844H164Q196 848 196 856V872L180
888Q156 872 156 848ZM740 892H764V872L780 848V836Q708 848 708 860V868Q719 868 740 892ZM556 880L552 876V872L560 864L564 868V872L556 880ZM548 852L544 848V840H556V844L548 852ZM664 784L672 776L680 784L672 792L664 784ZM888 796Q900 794 900 764L892
756H888L880 764L888 776V780L880 792L884 796H888ZM896 736L900 732V720L904 612L900 608H872L856 620H852L832 616L828 620V624L832 628V632L828 636H820L804 612H800Q779 612 776 624Q790 652 820 676Q820 712 860 712Q860 720 884 720L896 736ZM784 692V684H776L784
692ZM776 676H780L788 668L768 636H760Q752 636 748 660L776 676ZM916 676H924V596H916L912 624L916 628V632L912 636V640L916 664V676ZM828 660L824 648L828 644H832L840 656V660H828ZM696 628Q696 620 708 620L720 624L736 596Q691 529 684 528L676 536V604L696
628ZM824 604L848 596L852 600L872 596H900L908 588V548Q920 548 920 540L908 528L912 472L892 476L888 472V468Q888 460 908 460L920 420Q916 404 904 404L880 412L872 388L876 384L904 388H908Q914 388 920 372L916 344Q916 324 924 324V316H920L924 216V160L892
164L876 160Q695 218 680 236L676 260Q676 300 712 300Q731 300 764 352L776 364V372L772 376V380L752 376L728 404H724L684 400L676 412V464Q676 511 724 556L748 584L768 568H776L784 576L772 600L776 604H824ZM816 564V556L824 548L832 556V568H828L816 564ZM768
544Q768 516 744 516L740 512V508L744 504H748Q788 509 788 520Q788 541 776 544H768ZM808 528V524L820 512H824L832 520V528L820 540L808 528ZM700 496L704 492H708L716 500L712 504H708L700 496ZM776 468L756 472V468L764 456L760 444Q767 444 776 420L796 424H800Q808
424 816 400L844 396H848L860 408V416Q851 436 832 436L828 440V444L848 476V484L820 504Q797 492 776 468ZM728 488V476H736V488H728ZM716 452L712 448V444L720 436L724 440V444L716 452ZM736 428V416L748 404H756L764 412V424L752 436H744L736 428ZM788 396L796
388L804 396L796 404L788 396ZM692 192Q760 162 760 156Q760 145 800 140L828 144Q828 128 892 120L900 128H916Q928 128 956 4L952 0H712Q676 32 676 188L680 192H692Z" />
<glyph unicode="s" glyph-name="s" horiz-adv-x="954" d="M499 1928Q647 1928 739 1860V1856L731 1836L735 1832H739L775 1836L811 1796Q758 1752 747 1696V1640L755 1632Q766 1632 811 1696H843L863 1700Q891 1636 891 1484V1320L883 1312H751V876Q903 715 903
448Q903 218 751 84V0L747 -340H735V64L727 72Q635 20 595 20L567 52H563Q557 52 551 36L555 20Q555 8 491 8Q154 8 91 316L127 380Q149 444 175 444L187 440Q187 456 235 456Q275 472 275 488Q261 516 255 516H243Q236 516 231 492Q199 492 199 468L195 464H183L175
472V480Q207 500 207 520L203 524H187Q164 479 143 476Q125 476 111 440L95 428H83V616L91 624H123L243 620L247 616L239 576L243 572H247Q267 572 267 616L271 620H275Q323 601 327 592V424Q327 283 431 240Q443 240 443 232Q427 213 427 192L439 184L475 232H491Q659
232 659 452Q659 646 507 780L459 832V840Q483 871 483 888L471 936Q471 944 507 976Q507 996 527 996Q552 996 575 1056H579L731 900H735V1324L727 1332Q710 1316 691 1312Q665 1312 647 1340V1520L735 1624V1668L727 1676L675 1652Q675 1641 639 1612Q632 1612
607 1660Q575 1688 519 1708L499 1704H491L471 1708Q471 1696 427 1696Q339 1630 339 1496V1420L327 1404Q349 1382 371 1308Q410 1244 427 1200Q461 1200 531 1108V1100Q475 1088 475 1052Q484 1052 491 1016V1012Q491 1003 471 1000L447 1008Q420 1008 395 972L403
924L399 920H391Q368 920 291 1016Q152 1157 123 1268L111 1320L115 1340Q95 1340 95 1500V1512H107V1504H131L139 1496L135 1492V1488L147 1480L151 1484H155L151 1488V1492L167 1548L163 1552H159L143 1548L139 1552V1556L151 1560V1564Q149 1573 119 1588L107
1584L103 1588Q103 1628 143 1728Q237 1928 499 1928ZM139 1532H147V1528H139V1532ZM691 1480Q696 1450 707 1448H711L731 1484L735 1488L719 1500Q694 1492 691 1480ZM771 1416V1404H807Q835 1435 835 1464L823 1476Q771 1454 771 1416ZM655 1412Q662 1396 683
1396L699 1416V1424L687 1436H683L655 1412ZM235 1424V1416H239V1424H235ZM859 1408Q862 1384 871 1384L879 1396V1408L871 1416H867L859 1408ZM239 1204V1188L251 1176H255Q265 1176 275 1208L263 1216H251L239 1204ZM499 896V892Q499 828 579 744H611Q622 744
647 788Q647 832 595 832L591 836V872L603 912V916L583 936H555Q525 924 499 896ZM771 796L779 768H787L791 804L787 808H783L771 796ZM779 740Q779 724 763 724L751 708V684L759 676L791 716V732L783 740H779ZM711 716Q720 652 727 652L735 660V708L723 720H719L715
716H711ZM147 584V568L159 556L167 564V584L159 592H155L147 584ZM851 500V496L859 488L863 492V496L859 500H851ZM199 424L191 412L199 404H203L211 412L199 424ZM355 92Q355 71 371 64H375Q386 64 415 140Q423 140 427 176L423 180H411Q396 180 383 124Q359 124
355 92ZM491 40V32H499V40H491Z" />
<glyph unicode="t" glyph-name="t" horiz-adv-x="954" d="M138 1872H238L258 1868L282 1872H378Q386 1872 386 1840Q403 1824 418 1824L454 1856H470Q480 1856 486 1824H498Q518 1842 518 1856L510 1864V1872Q528 1872 550 1852Q558 1852 558 1868L562 1872H850L858
1864V1692L854 1688V1684L834 1688Q812 1685 786 1644H622L598 1652L586 1648L574 1652L570 1648V1644L586 1628V1624L578 1612L582 1592L562 1584L522 1652Q438 1670 438 1704Q402 1712 402 1720L414 1764Q378 1800 366 1800Q366 1784 302 1776H298Q291 1776 278
1812Q262 1812 262 1820L214 1812Q200 1836 174 1836L142 1832L138 1836V1872ZM410 1872H414V1864H410V1872ZM206 1772Q222 1766 222 1760L218 1736Q218 1708 286 1704L290 1700V1680L266 1660L258 1668H254Q254 1644 246 1644H82L74 1652V1732L78 1736V1740L94
1736Q184 1736 206 1772ZM642 1760V1744L650 1736H654L658 1740H662Q658 1768 650 1768L642 1760ZM350 1632L390 1608Q399 1608 402 1628H410Q445 1580 474 1580Q590 1580 590 1516V584Q590 576 574 576L570 572V568Q570 553 590 532V8L582 0H410L342 56V740L350
748L362 744V748L342 768V956L354 968L362 960L354 948V936Q354 931 394 920L398 916Q403 958 414 968Q404 996 382 996L378 992H374L370 996H366L346 992L342 996V1008L346 1024L342 1052V1624L350 1632ZM438 536V524Q438 517 466 512Q490 517 490 524V528Q490
538 458 544H446L438 536ZM490 468Q490 452 526 444Q550 453 550 460V480L538 492H534Q490 482 490 468ZM386 436Q400 408 426 408Q442 425 442 440V452Q442 480 422 480Q386 470 386 444V436ZM486 380L530 352Q570 352 570 384Q570 409 526 420H514Q486 402 486
380ZM406 360L394 344V340Q398 328 418 328H426L434 336V348Q434 356 406 360Z" />
<glyph unicode="u" glyph-name="u" horiz-adv-x="1048" d="M156 1896H388L396 1888V1220L388 1212L308 1240L300 1228V1220H304L316 1224Q348 1219 348 1208L340 1192L352 1176L364 1184H372V1176Q396 1176 396 1096L392 1092V1088L396 1072V1060L388 1048L396
1024V1016H392L396 992Q396 949 384 928L392 920L380 888Q396 888 396 728V628H388L364 648L356 640Q388 617 396 596V392Q396 259 508 228L544 224Q628 224 668 292Q710 292 736 244L760 240V248L704 300L744 320L756 312H760Q817 334 840 380Q840 392 848 392H932L940
384Q929 240 908 240Q900 240 896 284Q874 308 848 308Q796 308 796 276Q784 276 784 268L788 264H792L812 268Q828 262 828 256L804 220L788 232H784V220Q812 192 812 184L808 172L824 160H828V164L824 176L828 180H832Q859 168 868 156Q852 110 796 72Q771 52
708 28H704L692 36H660V28H684V24Q676 4 540 0L524 4L512 0Q375 0 260 100Q260 134 212 156L204 180V188L208 192V196L204 200L200 196H196Q184 196 168 256Q186 310 196 312Q208 312 216 328V340L196 344L176 328H172Q148 337 148 368V872L156 884L148 896V1164Q148
1174 184 1176L188 1180V1184L164 1228V1240L172 1248Q183 1240 208 1240V1236L212 1240H216L236 1224Q244 1224 244 1244Q264 1244 264 1236L280 1244L292 1240V1248Q221 1268 196 1284L180 1280L148 1304V1360Q198 1360 244 1332L280 1356Q269 1388 240 1388Q238
1424 224 1424L200 1436Q173 1416 152 1416L148 1420V1888L156 1896ZM700 1896H764L800 1892L840 1896H932L940 1888V1024L932 1016Q871 1036 860 1052L848 1048L844 1052V1056L848 1072L840 1080V1096H848Q856 1096 856 1084L852 1072H860L872 1084V1088Q860 1088
860 1096V1108L868 1120V1124H864L852 1120L848 1124V1128Q848 1136 864 1136Q862 1157 840 1188V1232L836 1412L832 1416H824L832 1268L828 1132L824 1120L828 1116V1112L824 1100L828 1076V1064L824 1060V1056L788 1064L784 1060V1056L800 1044L820 1048L824
1044V1032L816 1024H812L748 1056L744 1052H740L716 1068L724 1076H728L740 1064L760 1068L764 1064H768L772 1068V1072Q709 1094 692 1108V1504L696 1528L692 1548L700 1572L692 1580V1604L696 1620L692 1636V1648L696 1672L692 1712V1852L696 1868L692 1884V1888L700
1896ZM196 1504V1488H204L220 1504V1512H204L196 1504ZM316 1376V1360L328 1348L340 1360V1376L328 1388L316 1376ZM280 1220V1212L296 1208V1216L280 1220ZM156 1204H168V1196H156V1204ZM348 1100L356 1092H360V1100H348ZM704 1088L712 1080V1072L704 1064L696
1072V1080L704 1088ZM704 1044Q723 1044 756 1020Q815 1020 824 972L816 868L828 856L824 840L828 776V756L820 744V740L828 728V684L824 656L828 620V560Q816 545 816 532V496Q816 484 800 484L780 492Q762 484 760 476V472H764L776 480H780V472Q780 460 764 460L744
464L740 452L744 440L708 416V408Q720 393 720 380Q700 369 700 344L696 340H688L696 412L692 436V456Q692 486 704 488L720 476Q740 486 740 512L716 524L700 520L692 528V976L700 984L704 980H708V984Q692 1002 692 1040L704 1044ZM780 1032L792 1028V1020H788L780
1028V1032ZM900 1016L924 1004L936 1008L940 1004V996L936 992V988Q911 988 892 1008L900 1016ZM268 988L284 976H288V984L276 996L268 988ZM736 980V976Q736 967 756 964L760 968V972L736 980ZM300 976V972Q300 964 324 960V968L300 976ZM900 968Q930 960 940
940V412L936 408V404L880 412L868 400H856L848 408V416L860 432L848 468L852 472H856L868 468L872 472V484L848 544L864 572V580H848V620L852 632L848 648L852 816Q856 832 868 832V840Q856 840 840 884L856 916H860L864 912H868L872 916V920Q862 920 856 948L900
968ZM360 908L364 904H372V916H368L360 908ZM196 864L204 856V864H196ZM192 828H200V836L192 828ZM208 808L228 796H232L240 804L232 816V820Q232 828 244 828V836H240Q218 836 208 808ZM320 680L332 668L340 676L336 680H320ZM768 544L776 536L788 548V556H780L768
544ZM796 520V512H804V520H796ZM812 452L816 448V420Q816 412 804 412L788 424Q805 452 812 452ZM740 432H748V420H740V432ZM872 428V420H884L876 428H872ZM304 356L280 360L276 356V348L284 340L320 360V364H316L304 356ZM244 340L252 332H260L268 340L260 348H252L244
340ZM680 328H692V316H688L680 324V328ZM900 232L908 224L900 216L892 224L900 232ZM516 200V188H524V200H516ZM548 172V164H556L564 172V176H560L548 172ZM120 152Q137 147 144 132V128H140L116 148L120 152ZM528 24V20L568 28V36Q528 34 528 24Z" />
<glyph unicode="v" glyph-name="v" horiz-adv-x="1048" d="M286 1894L290 1890H294L290 1870V1830L302 1818H314Q326 1818 326 1842H334L346 1758H322L310 1746V1738L322 1726L342 1738Q354 1738 378 1518L422 1226L414 1218Q429 1218 442 1070Q522 552 522 430L518
426H514Q490 442 466 442H410Q394 442 378 462L366 458Q360 474 338 474L322 462H314L86 1890L90 1894H286ZM742 1894H970L974 1890H978L918 1538L898 1542L886 1530V1526L894 1514V1510L866 1486L830 1514L826 1510V1506Q866 1474 866 1458L850 1442V1438H862Q862
1450 870 1450L886 1442L898 1446L902 1442V1438Q902 1362 870 1362L862 1338L870 1330L874 1350H886V1338L862 1314V1310L874 1294L870 1290H866L854 1298H846V1290Q858 1277 870 1242L866 1238H862L850 1246H842L830 1206H834L850 1218H858L866 1210Q863 1170
854 1170Q810 1173 810 1182L814 1194H810L794 1186L790 1190V1210Q811 1254 826 1254V1262Q806 1276 806 1290H798V1278L774 1178L746 1182H726V1174Q750 1174 750 1166V1158Q714 1148 714 1138V1130H722Q776 1166 790 1166H818L858 1154Q825 942 810 918L814
890Q814 868 794 826L786 786L794 778Q771 590 750 590V586Q762 586 762 578L670 26L654 22L626 26H614Q550 26 550 14V-226H538V18L530 26H418L390 22Q358 176 330 386L334 390H498L518 394Q526 385 526 366H534Q534 523 634 1178L638 1182H654L682 1178L686 1182V1186Q638
1193 638 1206Q683 1562 694 1562H698V1566L690 1582Q693 1614 702 1614L722 1598H730V1606L698 1634Q730 1894 742 1894ZM298 1782Q302 1770 322 1770L330 1782V1794L318 1806L298 1782ZM818 1782L826 1774H834V1782L826 1790L818 1782ZM838 1754Q838 1745 858
1742L862 1746V1754L854 1762H846L838 1754ZM790 1746L806 1730Q812 1730 818 1746L814 1758H802L790 1746ZM846 1734L838 1722V1718L854 1702Q870 1708 870 1714V1718Q862 1734 846 1734ZM886 1730V1718H890L898 1726L894 1730H886ZM794 1706V1702L802 1694H806V1706H794ZM894
1622L910 1610H918L926 1618V1622L918 1634L926 1658L918 1666Q911 1666 894 1622ZM742 1594L738 1590V1586Q748 1570 814 1518H818V1526L742 1594ZM890 1566L898 1558H906L910 1574H898L890 1566ZM702 1550V1542L718 1518H722Q722 1540 706 1550H702ZM726 1510L722
1506V1502L726 1498H730L734 1502V1506L730 1510H726ZM742 1490L738 1486L774 1410H786Q786 1424 742 1490ZM902 1490H910V1470L898 1458L890 1470V1478L902 1490ZM806 1390L794 1398H790L806 1350L794 1338L786 1346L794 1358L790 1362H786Q759 1326 738 1326Q729
1328 718 1358H714L710 1354H706Q710 1314 718 1306L758 1310H762L774 1302L814 1314L830 1310H838L846 1318L814 1370Q814 1379 842 1398L846 1426H838Q831 1425 814 1390H806ZM866 1394V1390H874L882 1398V1402H874L866 1394ZM742 1266L754 1254L758 1258V1274H750L742
1266ZM694 1178L698 1174H706V1186H702L694 1178ZM782 1146V1138H790V1146H782ZM778 1118V1110H790V1118H778ZM782 1082L778 1054L782 1050H786L794 1070L790 1082H782ZM742 1058L746 1054H754V1066H750L742 1058ZM762 962L790 954V962L782 974V978Q782 1012 794
1026L778 1042Q762 1042 762 962ZM790 990L798 982V990H790ZM774 910L770 906V898L782 886H790V894L774 910ZM722 782V774L750 746H758Q766 746 774 774L770 778L750 774L722 782ZM654 774L650 770V758H654L662 766L654 774ZM606 738V730L614 722L626 734V738L618
746H614L606 738ZM634 726Q640 710 646 710L666 726V734L658 742H650L634 726ZM582 726L574 714V710H582L590 718L582 726ZM598 690V686L610 674H614L626 686V690L618 698H606L598 690ZM650 678V666H654L662 674V678H650ZM666 542V534H670Q693 534 738 574V582H730Q692
550 666 542ZM642 518L646 514H654V526H650L642 518ZM606 494V486H610L634 506L630 510H626L606 494ZM570 474V462L578 470L574 474H570Z" />
<glyph unicode="w" glyph-name="w" horiz-adv-x="1582" d="M338 1872Q346 1872 366 1676L410 1216L398 1204L402 1200Q422 1184 422 1080L418 1076H414Q390 1092 322 1092V1084Q406 1072 406 1064V1056Q388 1056 334 1016L294 1056V1076L310 1096L302 1104L282
1100H270L254 1112L246 1104H238L202 1136V1140Q211 1160 234 1160V1164L222 1180Q233 1200 258 1200Q290 1200 302 1168V1144L294 1132V1128Q302 1112 314 1112Q338 1116 338 1124V1128L326 1144Q328 1156 354 1156V1160Q344 1184 318 1184V1192L334 1204L338
1208V1220H326L302 1200H294L282 1212V1216L290 1228V1232L282 1240H270L254 1232V1224L262 1212L258 1208Q242 1212 242 1224L246 1236L230 1244L214 1224H210L194 1236L182 1224H178L174 1244V1260L186 1276V1284L166 1304V1308L170 1328Q159 1328 130 1608L126
1640L130 1652Q120 1652 94 1868L98 1872H338ZM918 1872Q934 1872 942 1740Q1110 481 1110 340H1118Q1138 690 1266 1872H1502Q1510 1872 1510 1860L1270 0H974Q962 0 926 348Q807 1230 806 1388H798Q762 956 634 0H342Q326 0 318 132L274 464L290 472L262 552L242
720L246 732Q236 732 234 780L246 784V788Q226 788 218 920L290 964Q314 976 314 992L326 1000Q446 906 446 876L490 340H498Q522 672 546 800Q562 800 562 808L550 824V852L566 872V888L558 900Q567 1040 586 1040Q614 1046 614 1056Q614 1061 578 1072Q588 1188
606 1188Q635 1188 654 1216L646 1224L602 1200L598 1212L682 1872H918ZM342 1280L350 1272L358 1280L350 1288L342 1280ZM318 1252V1228H338Q346 1228 350 1256L346 1260H326L318 1252ZM670 1252V1240H678V1252H670ZM662 1236V1228H666V1236H662ZM362 1176V1172H366Q387
1172 390 1184L382 1192L362 1176ZM234 1144Q237 1120 246 1120H250V1128L242 1144H234ZM654 1108L662 1080L642 1060V1052L662 1032H698L706 1040Q694 1050 654 1056V1060L674 1088V1100L662 1112L658 1108H654ZM198 1096Q229 1096 254 1056Q268 1040 290 1040L318
1012V1004Q305 1004 282 976L218 940Q210 945 202 1036L206 1040V1044Q194 1067 194 1092L198 1096ZM214 1056V1052L226 1064H222L214 1056ZM426 1052V1048L422 1020Q434 1020 438 932L434 928H430L346 1004Q403 1052 426 1052ZM722 1044V1036H726V1044H722ZM318
960L314 956V952L318 948H322L326 952V956L322 960H318ZM298 812V808H306L314 816L310 820H306L298 812ZM258 796L262 792H266L286 800V808H282Q258 804 258 796ZM566 800L574 792L578 796V800H566ZM582 792V784H594V792H582ZM362 716V704L390 696L394 700V708L386
716H362ZM334 448L310 452Q298 450 298 420L326 384L330 388H334L314 436Q366 443 366 464V468H358L334 448ZM338 376V372H346V376H338ZM350 364V356H362V364H350Z" />
<glyph unicode="x" glyph-name="x" horiz-adv-x="1082" d="M395 1872Q409 1861 447 1696L443 1676Q462 1676 507 1480Q563 1297 563 1236Q535 1236 535 1212Q498 1180 483 1180Q467 1180 467 1152Q440 1152 435 1104Q427 1104 419 1076Q419 1056 471 1056Q471
1083 535 1136L547 1128H551Q558 1128 563 1148L559 1172V1184H571V1172H575Q582 1172 587 1200H591Q683 1187 683 1176Q703 1177 731 1216H735L751 1204L767 1208L791 1196L715 944L1003 4L999 0H751Q739 0 603 552L615 564V580Q615 612 591 612L579 700H571V696Q571
589 391 0H151L143 8Q206 228 219 228L259 172Q275 172 287 160H315L331 176Q331 204 283 224L259 260L283 288Q283 313 243 328Q267 422 291 460Q291 512 327 512H331L379 500Q404 500 415 520V524Q386 558 323 580V584Q331 628 343 628L371 588Q395 597 395 604L387
632L391 656H387L355 648L351 652V668Q365 744 379 744L391 732L387 704L391 700H395L403 708H407Q419 708 419 692L415 672L419 668H423Q431 668 431 688H435L459 684L479 692L527 676H539L559 696Q543 711 447 744Q447 775 399 820V824L431 944L411 1008L415
1032V1040Q387 1064 375 1136V1140L379 1152Q359 1152 295 1392L147 1868L151 1872H395ZM991 1872L999 1864Q961 1716 943 1716L907 1680L923 1628V1624Q923 1593 907 1588L895 1592L883 1588L863 1608Q847 1602 847 1596V1592L859 1576Q859 1516 819 1516Q819
1491 759 1484L755 1480V1460L795 1420V1416L787 1408L731 1420Q725 1403 691 1376Q691 1362 643 1328Q640 1309 623 1296Q618 1256 599 1256L595 1260V1264Q631 1446 751 1868L755 1872H991ZM831 1348L835 1344H839Q830 1316 823 1316H819L811 1324V1332L831 1348ZM623
1104L631 1096L639 1104L631 1112L623 1104ZM475 848L471 844V840L475 836H479L483 840V844L479 848H475ZM499 824L511 812H515L523 820V824L511 836L499 824ZM371 456L387 392Q404 382 431 332H455Q475 332 475 412Q471 436 463 436L447 432Q447 459 415 484H407Q384
484 371 456Z" />
<glyph unicode="y" glyph-name="y" horiz-adv-x="1082" d="M379 1872Q389 1872 459 1540Q543 1214 543 1164L531 1160L507 1168L487 1148L503 1132Q516 1132 531 1144Q555 1144 555 1100L551 1096H547L527 1108L523 1104H519L507 1108L503 1104V1084Q535 1084
535 1060L547 1056L559 1060L567 1016H563L499 1028Q491 1017 455 1004L451 984V980Q451 942 583 908H587Q595 916 623 916L647 940L663 928H671L679 936V956L643 980H635Q624 980 623 960Q579 966 579 980V1016L591 1028L603 1020L607 1024V1032L591 1044L587
1048V1052Q587 1131 719 1672Q757 1872 771 1872H1011L1019 1864L823 1172H819Q810 1172 791 1244Q771 1328 763 1328H755Q747 1328 747 1316L775 1192Q792 1189 799 1084L739 888Q723 888 723 864Q731 864 731 852Q713 764 699 764Q699 778 659 784L655 780V776Q680
747 699 744L695 704V8L687 0H455L447 8V580L455 588L463 580H479L491 592V596L479 608L451 600L447 604V708L435 764L515 784L531 780Q531 794 587 812V820L579 828H563L471 804L467 808H463L427 792Q383 934 383 960L387 964H427L435 972V976Q410 1003 363 1016L127
1868L131 1872H379ZM695 1540V1524Q695 1451 739 1340H743Q755 1340 759 1372Q735 1441 727 1448V1456Q727 1530 703 1548L695 1540ZM675 1256V1248L683 1240L699 1248V1256L691 1264H683L675 1256ZM319 1240V1236L347 1208H355L363 1216Q353 1240 327 1240H319ZM623
1148Q623 1108 671 1108Q687 1108 723 1080L759 1108Q757 1128 715 1148L719 1168Q719 1177 683 1184H675Q656 1169 631 1164L623 1148ZM643 844L631 848Q603 843 603 832V828Q610 812 631 812L695 844V852L687 860H683L643 844ZM475 756L471 752V748L495 732L503
740Q497 756 475 756ZM491 500L499 492L519 496L531 484H535L547 496L527 512Q491 508 491 500ZM603 496L611 488Q632 488 635 500L627 508Q603 506 603 496Z" />
<glyph unicode="z" glyph-name="z" horiz-adv-x="946" d="M145 1872H849L853 1868H857L861 1660V1056L853 1048L849 1052V1056L845 1592H841Q832 1592 753 1344V1032L749 692L745 688H741L737 692V1288H729Q630 995 609 964Q597 964 597 956V952L605 940L353 224L357
220H873L881 212V8L873 0H273Q233 36 233 44L237 72L233 76H225L153 32Q142 32 129 64V80Q165 109 165 132Q193 151 193 192Q209 198 209 204Q189 209 189 216V228L201 240H209L241 232L249 240V248L237 264V276Q253 311 273 328V340Q257 418 221 444Q189 462 189
468Q231 604 249 604Q270 618 277 636L265 680Q289 689 289 696V700L277 716Q299 824 349 824Q385 824 385 840L333 876Q333 909 369 932L357 944L597 1640L593 1644H285Q217 1644 217 1664L209 1688Q183 1678 181 1668L185 1652L173 1644H129L121 1652V1676L129
1732L121 1764V1832Q121 1851 145 1872ZM441 964V956L449 948H453Q467 948 501 976L521 972Q542 972 545 984Q533 996 501 1000L497 1016H485L441 964ZM565 964V960L573 952H585V960L573 972L565 964ZM401 948V940H405V948H401ZM365 872Q366 865 405 848L409 832L385
812Q400 785 429 768H433Q445 768 449 800L413 868V904H405Q385 880 369 880L365 876V872ZM441 880V872H449V880H441ZM317 716L341 692H349L365 708V720L357 728H349Q320 728 317 716ZM221 156L225 152H245Q273 152 273 192Q267 208 261 208H257Q221 176 221 156ZM237
100V96L245 88H249L257 96V104L249 112L237 100Z" />
<glyph unicode="{" glyph-name="braceleft" horiz-adv-x="1707" />
<glyph unicode="|" glyph-name="bar" horiz-adv-x="1707" />
<glyph unicode="}" glyph-name="braceright" horiz-adv-x="1707" />
<glyph unicode="~" glyph-name="asciitilde" horiz-adv-x="1707" />
</font>
</defs>
</svg>
